<?xml version="1.0" encoding="UTF-8" standalone="no"?>
<svg width="24px" height="16px" viewBox="0 0 24 16" version="1.1" xmlns="http://www.w3.org/2000/svg" xmlns:xlink="http://www.w3.org/1999/xlink" xmlns:sketch="http://www.bohemiancoding.com/sketch/ns">
    <!-- Generator: Sketch 3.5.2 (25235) - http://www.bohemiancoding.com/sketch -->
    <title>amex</title>
    <desc>Created with Sketch.</desc>
    <defs></defs>
    <g id="Page-1" stroke="none" stroke-width="1" fill="none" fill-rule="evenodd" sketch:type="MSPage">
        <g id="Desktop-HD" sketch:type="MSArtboardGroup" transform="translate(-889.000000, -560.000000)">
            <g id="widget" sketch:type="MSLayerGroup" transform="translate(399.000000, 331.000000)">
                <g id="content" sketch:type="MSShapeGroup">
                    <g id="badges" transform="translate(402.000000, 229.000000)">
                        <g id="amex" transform="translate(88.000000, 0.000000)">
                            <g id="Amex" fill="#3498D8">
                                <path d="M21.8181818,0.363636364 L1.45454545,0.363636364 C0.654545455,0.363636364 0,1.01818182 0,1.81818182 L0,14.1818182 C0,14.9818182 0.654545455,15.6363636 1.45454545,15.6363636 L21.8181818,15.6363636 C22.6181818,15.6363636 23.2727273,14.9818182 23.2727273,14.1818182 L23.2727273,1.81818182 C23.2727273,1.01818182 22.6181818,0.363636364 21.8181818,0.363636364 L21.8181818,0.363636364 Z" id="Shape"></path>
                            </g>
                            <g id="Amex_1_" transform="translate(1.454545, 5.090909)" fill="#FFFFFF">
                                <path d="M3.41818182,3.12727273 L4.58181818,3.12727273 L4,1.67272727 L3.41818182,3.12727273 L3.41818182,3.12727273 Z M19.6363636,0.363636364 L16.6545455,0.363636364 L15.9272727,1.16363636 L15.2727273,0.363636364 L8.94545455,0.363636364 L8.36363636,1.67272727 L7.78181818,0.363636364 L5.23636364,0.363636364 L5.23636364,0.945454545 L4.94545455,0.363636364 L2.76363636,0.363636364 L0.654545455,5.45454545 L3.2,5.45454545 L3.49090909,4.65454545 L4.21818182,4.65454545 L4.50909091,5.45454545 L7.34545455,5.45454545 L7.34545455,4.87272727 L7.56363636,5.45454545 L9.01818182,5.45454545 L9.23636364,4.8 L9.23636364,5.45454545 L15.0545455,5.45454545 L15.7818182,4.65454545 L16.4363636,5.45454545 L19.4181818,5.45454545 L17.5272727,2.90909091 L19.6363636,0.363636364 L19.6363636,0.363636364 Z M10.8363636,4.72727273 L10.0363636,4.72727273 L10.0363636,1.89090909 L8.8,4.72727273 L8.07272727,4.72727273 L6.83636364,1.89090909 L6.83636364,4.72727273 L5.16363636,4.72727273 L4.87272727,3.92727273 L3.12727273,3.92727273 L2.83636364,4.72727273 L1.89090909,4.72727273 L3.41818182,1.09090909 L4.65454545,1.09090909 L6.03636364,4.50909091 L6.03636364,1.09090909 L7.41818182,1.09090909 L8.50909091,3.56363636 L9.52727273,1.09090909 L10.9090909,1.09090909 L10.9090909,4.72727273 L10.8363636,4.72727273 Z M18.0363636,4.72727273 L16.9454545,4.72727273 L16,3.49090909 L14.9090909,4.72727273 L11.6363636,4.72727273 L11.6363636,1.09090909 L14.9818182,1.09090909 L16,2.25454545 L17.0909091,1.09090909 L18.1090909,1.09090909 L16.5090909,2.90909091 L18.0363636,4.72727273 L18.0363636,4.72727273 Z M12.4363636,1.81818182 L12.4363636,2.47272727 L14.2545455,2.47272727 L14.2545455,3.2 L12.4363636,3.2 L12.4363636,3.92727273 L14.4727273,3.92727273 L15.4181818,2.83636364 L14.5454545,1.81818182 L12.4363636,1.81818182 L12.4363636,1.81818182 Z" id="Shape"></path>
                            </g>
                        </g>
                    </g>
                </g>
            </g>
        </g>
    </g>
</svg>