<?xml version="1.0" encoding="UTF-8" standalone="no"?>
<svg width="21px" height="16px" viewBox="0 0 21 16" version="1.1" xmlns="http://www.w3.org/2000/svg" xmlns:xlink="http://www.w3.org/1999/xlink" xmlns:sketch="http://www.bohemiancoding.com/sketch/ns">
    <!-- Generator: Sketch 3.5.2 (25235) - http://www.bohemiancoding.com/sketch -->
    <title>diners</title>
    <desc>Created with Sketch.</desc>
    <defs></defs>
    <g id="Page-1" stroke="none" stroke-width="1" fill="none" fill-rule="evenodd" sketch:type="MSPage">
        <g id="Desktop-HD" sketch:type="MSArtboardGroup" transform="translate(-1002.000000, -560.000000)">
            <g id="widget" sketch:type="MSLayerGroup" transform="translate(399.000000, 331.000000)">
                <g id="content" sketch:type="MSShapeGroup">
                    <g id="badges" transform="translate(402.000000, 229.000000)">
                        <g id="diners" transform="translate(201.727273, 0.000000)">
                            <path d="M11.7516547,15.9203071 C16.0951853,15.9411236 20.0597015,12.3716898 20.0597015,8.02933137 C20.0597015,3.28072088 16.0951853,-0.00157882576 11.7516547,5.69737967e-07 L8.01353815,5.69737967e-07 C3.6179797,-0.00157882576 0,3.28170011 0,8.02933137 C0,12.3726374 3.6179797,15.9411551 8.01353815,15.9203071 L11.7516547,15.9203071 L11.7516547,15.9203071 L11.7516547,15.9203071 Z" id="Shape" fill="#4186CD"></path>
                            <path d="M7.95957982,0.63681592 C3.91512047,0.63808566 0.637768454,3.91560155 0.636815916,7.9607069 C0.637768454,12.0051139 3.91508872,15.2823124 7.95957982,15.2835821 C12.0049918,15.2823124 15.2830106,12.0051139 15.2835821,7.9607069 C15.2829789,3.91560155 12.0049918,0.63808566 7.95957982,0.63681592 L7.95957982,0.63681592 L7.95957982,0.63681592 Z M3.50248756,7.80149904 L3.50248756,7.80149904 C3.50615171,5.8399142 4.69364208,4.16719612 6.36815916,3.50248756 L6.36815916,12.0995024 C4.69364208,11.435172 3.50612118,9.7633674 3.50248756,7.80149904 L3.50248756,7.80149904 L3.50248756,7.80149904 Z M9.55223881,12.0995024 L9.55223881,12.0995024 L9.55223881,3.50248756 C11.2262964,4.16542195 12.414859,5.83866202 12.4179104,7.80069583 C12.414859,9.76332804 11.2262964,11.4353084 9.55223881,12.0995024 L9.55223881,12.0995024 L9.55223881,12.0995024 Z" id="Shape" fill="#FFFFFF"></path>
                        </g>
                    </g>
                </g>
            </g>
        </g>
    </g>
</svg>