<?xml version="1.0" encoding="UTF-8" standalone="no"?>
<svg width="27px" height="16px" viewBox="0 0 27 16" version="1.1" xmlns="http://www.w3.org/2000/svg" xmlns:xlink="http://www.w3.org/1999/xlink" xmlns:sketch="http://www.bohemiancoding.com/sketch/ns">
    <!-- Generator: Sketch 3.5.2 (25235) - http://www.bohemiancoding.com/sketch -->
    <title>discover</title>
    <desc>Created with Sketch.</desc>
    <defs></defs>
    <g id="Page-1" stroke="none" stroke-width="1" fill="none" fill-rule="evenodd" sketch:type="MSPage">
        <g id="Desktop-HD" sketch:type="MSArtboardGroup" transform="translate(-967.000000, -560.000000)">
            <g id="widget" sketch:type="MSLayerGroup" transform="translate(399.000000, 331.000000)">
                <g id="content" sketch:type="MSShapeGroup">
                    <g id="badges" transform="translate(402.000000, 229.000000)">
                        <g id="discover" transform="translate(166.727273, 0.000000)">
                            <path d="M23.68,1.61834699e-07 C22.4,2.82631341e-07 8.84812499,-2.56509397e-07 1.28,1.61834699e-07 C0.64,1.97212051e-07 -3.00559577e-14,0.640000162 1.77635684e-15,1.28000016 L1.77635684e-15,14.0800002 C-7.40543773e-08,15.3600002 0.64,16.0000002 1.92,16.0000002 C9.05971354,16.0000002 22.4,16.0000003 23.68,16.0000002 C24.96,16.0000002 25.6,15.3600002 25.6,14.0800002 L25.6,1.92000016 C25.6,0.640000162 24.96,1.61834699e-07 23.68,1.61834699e-07 L23.68,1.61834699e-07 Z" id="Rectangle-1" fill="#F4F4F4"></path>
                            <path d="M7.92687499,16.0000002 C14.8046391,16.0000002 22.7094238,16.0000003 23.68,16.0000002 C24.96,16.0000002 25.6,15.3600002 25.6,14.0800002 L25.6,6.46859374 C25.6,6.46859374 21.7854688,13.1845312 7.92687499,16.0000002 L7.92687499,16.0000002 Z" id="Rectangle-1-copy" fill="#D97B16"></path>
                            <path d="M8.32614819,7.82733051 L8.55619955,7.82733051 L9.26826325,8.88994866 L9.27191486,8.88994866 L9.27191486,7.82733051 L9.44719208,7.82733051 L9.44719208,9.12 L9.22444394,9.12 L8.50507702,8.05738186 L8.50142541,8.05738186 L8.50142541,9.12 L8.32614819,9.12 L8.32614819,7.82733051 L8.32614819,7.82733051 Z M9.77948846,7.82733051 L10.6138811,7.82733051 L10.6138811,7.99165291 L9.95476568,7.99165291 L9.95476568,8.37689763 L10.568236,8.37689763 L10.568236,8.54122002 L9.95476568,8.54122002 L9.95476568,8.9556776 L10.6467455,8.9556776 L10.6467455,9.12 L9.77948846,9.12 L9.77948846,7.82733051 L9.77948846,7.82733051 Z M11.165274,7.99165291 L10.7489906,7.99165291 L10.7489906,7.82733051 L11.7568346,7.82733051 L11.7568346,7.99165291 L11.3405512,7.99165291 L11.3405512,9.12 L11.165274,9.12 L11.165274,7.99165291 L11.165274,7.99165291 Z M11.7787442,7.82733051 L11.9613247,7.82733051 L12.2461502,8.86073578 L12.2498018,8.86073578 L12.5547111,7.82733051 L12.7555496,7.82733051 L13.0604589,8.86073578 L13.0641105,8.86073578 L13.348936,7.82733051 L13.5315164,7.82733051 L13.1554007,9.12 L12.9709945,9.12 L12.6569561,8.06468507 L12.6533045,8.06468507 L12.341092,9.12 L12.1566857,9.12 L11.7787442,7.82733051 L11.7787442,7.82733051 Z M14.2928768,9.15286448 C14.1942829,9.15286448 14.1036022,9.1355195 14.020832,9.10082906 C13.9380618,9.06613859 13.8671604,9.01836386 13.8081258,8.95750341 C13.7490912,8.89664296 13.7028379,8.8248287 13.6693647,8.7420585 C13.6358914,8.65928829 13.619155,8.56982477 13.619155,8.47366525 C13.619155,8.37750574 13.6358914,8.28804222 13.6693647,8.20527202 C13.7028379,8.12250181 13.7490912,8.05068755 13.8081258,7.9898271 C13.8671604,7.92896666 13.9380618,7.88119192 14.020832,7.84650146 C14.1036022,7.81181101 14.1942829,7.79446603 14.2928768,7.79446603 C14.3914708,7.79446603 14.4821515,7.81181101 14.5649217,7.84650146 C14.6476919,7.88119192 14.7185933,7.92896666 14.7776279,7.9898271 C14.8366625,8.05068755 14.8829158,8.12250181 14.916389,8.20527202 C14.9498623,8.28804222 14.9665987,8.37750574 14.9665987,8.47366525 C14.9665987,8.56982477 14.9498623,8.65928829 14.916389,8.7420585 C14.8829158,8.8248287 14.8366625,8.89664296 14.7776279,8.95750341 C14.7185933,9.01836386 14.6476919,9.06613859 14.5649217,9.10082906 C14.4821515,9.1355195 14.3914708,9.15286448 14.2928768,9.15286448 L14.2928768,9.15286448 Z M14.2928768,8.98854208 C14.3671266,8.98854208 14.4340721,8.97484869 14.4937153,8.94746149 C14.5533586,8.92007429 14.6044806,8.88325427 14.6470829,8.83700032 C14.6896852,8.79074638 14.7225494,8.7362771 14.7456763,8.67359083 C14.7688033,8.61090458 14.7803666,8.54426338 14.7803666,8.47366525 C14.7803666,8.40306714 14.7688033,8.33642594 14.7456763,8.27373968 C14.7225494,8.21105341 14.6896852,8.15658413 14.6470829,8.11033019 C14.6044806,8.06407624 14.5533586,8.02725622 14.4937153,7.99986902 C14.4340721,7.97248182 14.3671266,7.95878843 14.2928768,7.95878843 C14.2186271,7.95878843 14.1516816,7.97248182 14.0920384,7.99986902 C14.0323951,8.02725622 13.9812731,8.06407624 13.9386708,8.11033019 C13.8960685,8.15658413 13.8632043,8.21105341 13.8400774,8.27373968 C13.8169504,8.33642594 13.8053871,8.40306714 13.8053871,8.47366525 C13.8053871,8.54426338 13.8169504,8.61090458 13.8400774,8.67359083 C13.8632043,8.7362771 13.8960685,8.79074638 13.9386708,8.83700032 C13.9812731,8.88325427 14.0323951,8.92007429 14.0920384,8.94746149 C14.1516816,8.97484869 14.2186271,8.98854208 14.2928768,8.98854208 C14.2928768,8.98854208 14.2186271,8.98854208 14.2928768,8.98854208 L14.2928768,8.98854208 Z M15.2185597,7.82733051 L15.6731849,7.82733051 C15.7559552,7.82733051 15.8241178,7.83858952 15.877675,7.86110789 C15.9312322,7.88362626 15.9735296,7.91223024 16.0045685,7.9469207 C16.0356072,7.98161115 16.0572125,8.02056126 16.0693845,8.06377218 C16.0815566,8.10698309 16.0876426,8.14867187 16.0876426,8.18883978 C16.0876426,8.23022488 16.0803394,8.27008787 16.065733,8.30842997 C16.0511264,8.34677205 16.0301298,8.38146198 16.0027426,8.41250082 C15.9753554,8.44353963 15.9418827,8.46970923 15.9023234,8.4910104 C15.8627641,8.51231155 15.8186409,8.52539635 15.7699526,8.53026518 L16.1369392,9.12 L15.9178427,9.12 L15.589198,8.55034904 L15.3938369,8.55034904 L15.3938369,9.12 L15.2185597,9.12 L15.2185597,7.82733051 L15.2185597,7.82733051 Z M15.3938369,8.39698147 L15.6238882,8.39698147 C15.6579701,8.39698147 15.6917471,8.3942428 15.7252204,8.38876536 C15.7586936,8.38328792 15.7885148,8.3732461 15.8146848,8.35863958 C15.8408548,8.34403307 15.8618513,8.32303653 15.877675,8.29564933 C15.8934988,8.26826213 15.9014105,8.2326593 15.9014105,8.18883978 C15.9014105,8.14502026 15.8934988,8.10941742 15.877675,8.08203022 C15.8618513,8.05464302 15.8408548,8.03364648 15.8146848,8.01903997 C15.7885148,8.00443346 15.7586936,7.99439163 15.7252204,7.98891419 C15.6917471,7.98343675 15.6579701,7.98069808 15.6238882,7.98069808 L15.3938369,7.98069808 L15.3938369,8.39698147 L15.3938369,8.39698147 Z M16.3341261,7.82733051 L16.5094034,7.82733051 L16.5094034,8.38602664 L16.5240098,8.38602664 L17.0954866,7.82733051 L17.3401443,7.82733051 L16.7157192,8.42436854 L17.3821378,9.12 L17.1265253,9.12 L16.5240098,8.47366525 L16.5094034,8.47366525 L16.5094034,9.12 L16.3341261,9.12 L16.3341261,7.82733051 L16.3341261,7.82733051 Z" id="NETWORK" fill="#000000"></path>
                            <path d="M2.26136,3.82144 L3.46664,3.82144 C3.66824101,3.82144 3.86263907,3.8523997 4.04984,3.91432 C4.23704094,3.9762403 4.40263928,4.07055936 4.54664,4.19728 C4.69064072,4.32400064 4.80583957,4.48311904 4.89224,4.67464 C4.97864043,4.86616096 5.02184,5.0915187 5.02184,5.35072 C5.02184,5.61280131 4.9721605,5.83959904 4.8728,6.03112 C4.7734395,6.22264096 4.64528078,6.38103938 4.48832,6.50632 C4.33135922,6.63160062 4.15712096,6.7251997 3.9656,6.78712 C3.77407904,6.8490403 3.58616093,6.88 3.40184,6.88 L2.26136,6.88 L2.26136,3.82144 L2.26136,3.82144 Z M3.21176,6.38752 C3.38168085,6.38752 3.54223925,6.36808019 3.69344,6.3292 C3.84464075,6.29031981 3.97639944,6.22984042 4.08872,6.14776 C4.20104056,6.06567958 4.28959968,5.95912066 4.3544,5.82808 C4.41920032,5.69703934 4.4516,5.53792094 4.4516,5.35072 C4.4516,5.16639907 4.42280029,5.00800066 4.3652,4.87552 C4.30759971,4.74303934 4.22768051,4.63576042 4.12544,4.55368 C4.02319949,4.47159958 3.9022407,4.41112019 3.76256,4.37224 C3.6228793,4.33335981 3.46952083,4.31392 3.30248,4.31392 L2.80568,4.31392 L2.80568,6.38752 L3.21176,6.38752 L3.21176,6.38752 Z M5.52728,3.82144 L6.0716,3.82144 L6.0716,6.88 L5.52728,6.88 L5.52728,3.82144 L5.52728,3.82144 Z M8.24024,4.47808 C8.18263971,4.39455958 8.10560048,4.33336019 8.00912,4.29448 C7.91263952,4.25559981 7.81112053,4.23616 7.70456,4.23616 C7.64119968,4.23616 7.58000029,4.24335994 7.52096,4.25776 C7.46191971,4.27216008 7.40864024,4.29519984 7.36112,4.32688 C7.31359976,4.35856016 7.27544014,4.39959974 7.24664,4.45 C7.21783986,4.50040026 7.20344,4.56015965 7.20344,4.62928 C7.20344,4.73296051 7.23943963,4.81215973 7.31144,4.86688 C7.38344035,4.92160027 7.47271947,4.96911979 7.57928,5.00944 C7.68584053,5.04976021 7.80247936,5.08863981 7.9292,5.12608 C8.05592064,5.16352019 8.17255947,5.21535966 8.27912,5.2816 C8.38568053,5.34784034 8.47495963,5.43567946 8.54696,5.54512 C8.61896035,5.65456054 8.65496,5.79999909 8.65496,5.98144 C8.65496,6.14560082 8.6247203,6.28887939 8.56424,6.41128 C8.5037597,6.53368061 8.42240051,6.6351996 8.32016,6.71584 C8.21791949,6.7964804 8.09912067,6.85695979 7.96376,6.89728 C7.82839933,6.93760021 7.68584075,6.95776 7.53608,6.95776 C7.34599906,6.95776 7.16312088,6.92608032 6.98744,6.86272 C6.81175912,6.79935968 6.66056064,6.69280075 6.53384,6.54304 L6.94424,6.1456 C7.01048034,6.24640051 7.09759946,6.32487971 7.2056,6.38104 C7.31360054,6.43720029 7.42807939,6.46528 7.54904,6.46528 C7.61240032,6.46528 7.67575968,6.45664008 7.73912,6.43936 C7.80248032,6.42207992 7.86007974,6.39616018 7.91192,6.3616 C7.96376026,6.32703982 8.00551984,6.28312027 8.0372,6.22984 C8.06888016,6.17655973 8.08472,6.11536035 8.08472,6.04624 C8.08472,5.93391944 8.04872035,5.8475203 7.97672,5.78704 C7.90471963,5.7265597 7.81544053,5.67544021 7.70888,5.63368 C7.60231947,5.59191979 7.48568064,5.55232019 7.35896,5.51488 C7.23223936,5.47743981 7.11560053,5.42632032 7.00904,5.36152 C6.90247947,5.29671968 6.81320035,5.21032054 6.7412,5.10232 C6.66919963,4.99431946 6.6332,4.84960091 6.6332,4.66816 C6.6332,4.50975922 6.66559968,4.37296058 6.7304,4.25776 C6.79520032,4.14255942 6.88015947,4.04680038 6.98528,3.97048 C7.09040053,3.89415962 7.21063933,3.83728019 7.346,3.79984 C7.48136067,3.76239981 7.6195993,3.74368 7.76072,3.74368 C7.9220008,3.74368 8.07823925,3.76815976 8.22944,3.81712 C8.38064075,3.86608024 8.51671939,3.94671944 8.63768,4.05904 C8.63768,4.05904 8.51671939,3.94671944 8.63768,4.05904 L8.24024,4.47808 L8.24024,4.47808 Z M11.3204,4.53856 C11.2080794,4.41759939 11.0993605,4.33696021 10.99424,4.29664 C10.8891195,4.25631979 10.7832805,4.23616 10.67672,4.23616 C10.5183192,4.23616 10.3750406,4.26423971 10.24688,4.3204 C10.1187194,4.37656029 10.0085605,4.4543195 9.9164,4.55368 C9.82423954,4.6530405 9.75296026,4.76895934 9.70256,4.90144 C9.65215974,5.03392066 9.62696,5.17647923 9.62696,5.32912 C9.62696,5.49328082 9.65215974,5.64447931 9.70256,5.78272 C9.75296026,5.92096069 9.82423954,6.0404795 9.9164,6.14128 C10.0085605,6.24208051 10.1187194,6.32127971 10.24688,6.37888 C10.3750406,6.43648029 10.5183192,6.46528 10.67672,6.46528 C10.8005606,6.46528 10.9207994,6.43576029 11.03744,6.37672 C11.1540806,6.31767971 11.2627995,6.22336066 11.3636,6.09376 L11.81288,6.41344 C11.6746393,6.60352094 11.506161,6.74175957 11.30744,6.82816 C11.108719,6.91456043 10.8970411,6.95776 10.6724,6.95776 C10.4362388,6.95776 10.219521,6.91960038 10.02224,6.84328 C9.82495901,6.76695962 9.65504072,6.6589607 9.51248,6.51928 C9.36991928,6.3795993 9.2583204,6.21184098 9.17768,6.016 C9.0970396,5.82015902 9.05672,5.6027212 9.05672,5.36368 C9.05672,5.11887878 9.0970396,4.89640101 9.17768,4.69624 C9.2583204,4.49607899 9.36991928,4.3254407 9.51248,4.18432 C9.65504072,4.0431993 9.82495901,3.93448038 10.02224,3.85816 C10.219521,3.78183962 10.4362388,3.74368 10.6724,3.74368 C10.879761,3.74368 11.0719991,3.78039963 11.24912,3.85384 C11.4262409,3.92728037 11.5911192,4.05183912 11.74376,4.22752 C11.74376,4.22752 11.5911192,4.05183912 11.74376,4.22752 L11.3204,4.53856 L11.3204,4.53856 Z M15.4244,3.82144 L16.0508,3.82144 L16.88456,6.13264 L17.74424,3.82144 L18.33176,3.82144 L17.09624,6.88 L16.62536,6.88 L15.4244,3.82144 L15.4244,3.82144 Z M18.66008,3.82144 L20.68616,3.82144 L20.68616,4.31392 L19.2044,4.31392 L19.2044,5.0656 L20.6084,5.0656 L20.6084,5.55808 L19.2044,5.55808 L19.2044,6.38752 L20.76392,6.38752 L20.76392,6.88 L18.66008,6.88 L18.66008,3.82144 L18.66008,3.82144 Z M21.2996,3.82144 L22.36232,3.82144 C22.5092008,3.82144 22.6510394,3.83511986 22.78784,3.86248 C22.9246406,3.88984014 23.0463195,3.93663966 23.15288,4.00288 C23.2594405,4.06912034 23.3443997,4.15839944 23.40776,4.27072 C23.4711203,4.38304056 23.5028,4.52559914 23.5028,4.6984 C23.5028,4.9201611 23.4416006,5.10591925 23.3192,5.25568 C23.1967994,5.40544075 23.0218411,5.49615984 22.79432,5.52784 L23.60648,6.88 L22.94984,6.88 L22.24136,5.584 L21.84392,5.584 L21.84392,6.88 L21.2996,6.88 L21.2996,3.82144 L21.2996,3.82144 Z M22.26728,5.11744 C22.3450403,5.11744 22.4227997,5.11384003 22.50056,5.10664 C22.5783203,5.09943997 22.6495997,5.08216014 22.7144,5.0548 C22.7792003,5.02743986 22.8317598,4.98568029 22.87208,4.92952 C22.9124002,4.87335971 22.93256,4.79488051 22.93256,4.69408 C22.93256,4.60479955 22.9138402,4.53280027 22.8764,4.47808 C22.8389598,4.42335973 22.7900003,4.38232014 22.72952,4.35496 C22.6690397,4.32759986 22.6020803,4.30960005 22.52864,4.30096 C22.4551997,4.29231995 22.3839203,4.288 22.3148,4.288 L21.84392,4.288 L21.84392,5.11744 L22.26728,5.11744 L22.26728,5.11744 Z" id="Shape" fill="#000000"></path>
                            <ellipse id="Oval-1" fill="#D97B16" cx="13.768" cy="5.352" rx="1.608" ry="1.608"></ellipse>
                        </g>
                    </g>
                </g>
            </g>
        </g>
    </g>
</svg>