<?xml version="1.0" encoding="UTF-8" standalone="no"?>
<svg width="27px" height="16px" viewBox="0 0 27 16" version="1.1" xmlns="http://www.w3.org/2000/svg" xmlns:xlink="http://www.w3.org/1999/xlink" xmlns:sketch="http://www.bohemiancoding.com/sketch/ns">
    <!-- Generator: Sketch 3.5.2 (25235) - http://www.bohemiancoding.com/sketch -->
    <title>master card</title>
    <desc>Created with Sketch.</desc>
    <defs></defs>
    <g id="Page-1" stroke="none" stroke-width="1" fill="none" fill-rule="evenodd" sketch:type="MSPage">
        <g id="Desktop-HD" sketch:type="MSArtboardGroup" transform="translate(-856.000000, -560.000000)">
            <g id="widget" sketch:type="MSLayerGroup" transform="translate(399.000000, 331.000000)">
                <g id="content" sketch:type="MSShapeGroup">
                    <g id="badges" transform="translate(402.000000, 229.000000)">
                        <g id="master-card" transform="translate(55.000000, 0.000000)">
                            <path d="M18.8515733,15.9987234 L19.2675634,15.9878298 L19.6777842,15.9582128 L20.0801993,15.9070638 L20.4797297,15.8369362 L20.8683152,15.7479149 L21.2515556,15.64 L21.6266509,15.5131915 L21.9936012,15.3702979 L22.3523216,15.2085106 L22.7002669,15.0331915 L23.0372672,14.8388936 L23.3661226,14.6311489 L23.6814029,14.4074043 L23.9857383,14.1699574 L24.2792986,13.9190638 L24.5592838,13.6521702 L24.8284089,13.3742979 L25.0811592,13.0829787 L25.3203344,12.7808511 L25.5458498,12.468 L25.7550751,12.1417021 L25.9508951,11.8070638 L26.1275403,11.4618723 L26.2906104,11.1057872 L26.4345907,10.7417872 L26.5623658,10.3693617 L26.6712206,9.98919149 L26.7608159,9.60340426 L26.8314909,9.20689362 L26.8830761,8.80774468 L26.913026,8.40051064 L26.9238012,7.98782979 L26.913026,7.57778723 L26.8830761,7.1732766 L26.8314909,6.77404255 L26.7608159,6.38289362 L26.6712206,5.9972766 L26.5623658,5.61957447 L26.4345907,5.24731915 L26.2906104,4.88587234 L26.1275403,4.53259574 L25.9508951,4.18731915 L25.7550751,3.85557447 L25.5458498,3.52919149 L25.3203344,3.21625532 L25.0811592,2.91685106 L24.8284089,2.62553191 L24.5592838,2.34774468 L24.2792986,2.08340426 L23.9857383,1.83259574 L23.6814029,1.59531915 L23.3661226,1.37131915 L23.0372672,1.16365957 L22.7002669,0.972170213 L22.3523216,0.796851064 L21.9936012,0.634978723 L21.6266509,0.492085106 L21.2515556,0.365276596 L20.8683152,0.257361702 L20.4797297,0.168340426 L20.0801993,0.098212766 L19.6777842,0.0469787234 L19.2675634,0.0173617021 L18.8515733,0.00655319149 L18.4384679,0.0173617021 L18.0280774,0.0469787234 L17.625832,0.098212766 L17.2289318,0.168340426 L16.8404311,0.257361702 L16.4571059,0.365276596 L16.0848105,0.492085106 L15.717945,0.634978723 L15.3617699,0.796851064 L15.0166245,0.972170213 L14.6796241,1.16365957 L14.3534838,1.37131915 L14.0382035,1.59531915 L13.7337832,1.83259574 L13.4430228,2.08340426 L13.1631225,2.34774468 L12.8967123,2.62553191 L12.643962,2.91685106 L12.4047868,3.21625532 L12.1819016,3.52919149 L11.9725066,3.85557447 L11.7796562,4.18731915 L11.600296,4.53259574 L11.4397711,4.88587234 L11.2957908,5.24731915 L11.1708156,5.61957447 L11.0620456,5.9972766 L10.9723655,6.38289362 L10.9016905,6.77404255 L10.8501053,7.1732766 L10.8202402,7.57778723 L10.8093802,7.98782979 L10.8202402,8.40051064 L10.8501053,8.80774468 L10.9016905,9.20689362 L10.9723655,9.60340426 L11.0620456,9.98919149 L11.1708156,10.3693617 L11.2957908,10.7417872 L11.4397711,11.1057872 L11.600296,11.4618723 L11.7796562,11.8070638 L11.9725066,12.1417021 L12.1819016,12.468 L12.4047868,12.7808511 L12.643962,13.0829787 L12.8967123,13.3742979 L13.1631225,13.6521702 L13.4430228,13.9190638 L13.7337832,14.1699574 L14.0382035,14.4074043 L14.3534838,14.6311489 L14.6796241,14.8388936 L15.0166245,15.0331915 L15.3617699,15.2085106 L15.717945,15.3702979 L16.0848105,15.5131915 L16.4571059,15.64 L16.8404311,15.7479149 L17.2289318,15.8369362 L17.625832,15.9070638 L18.0280774,15.9582128 L18.4384679,15.9878298 L18.8515733,15.9987234 L18.8515733,15.9987234 Z" id="Shape" fill="#F7A826"></path>
                            <path d="M8.07222789,15.9987234 L8.48541818,15.9878298 L8.89580861,15.9582128 L9.29813886,15.9070638 L9.69495425,15.8369362 L10.0836246,15.7479149 L10.4666953,15.64 L10.8391604,15.5131915 L11.2061107,15.3702979 L11.5620313,15.2085106 L11.9072616,15.0331915 L12.2443468,14.8388936 L12.570572,14.6311489 L12.8858523,14.4074043 L13.1901877,14.1699574 L13.4809481,13.9190638 L13.7610181,13.6521702 L14.0274283,13.3742979 L14.2800937,13.0829787 L14.519269,12.7808511 L14.7421541,12.468 L14.9514643,12.1417021 L15.1443996,11.8070638 L15.3237598,11.4618723 L15.4841149,11.1057872 L15.6282649,10.7417872 L15.7531553,10.3693617 L15.8618404,9.98919149 L15.9516902,9.60340426 L16.0223653,9.20689362 L16.0738656,8.80774468 L16.1039004,8.40051064 L16.1146755,7.98782979 L16.1039004,7.57778723 L16.0738656,7.1732766 L16.0223653,6.77404255 L15.9516902,6.38289362 L15.8618404,5.9972766 L15.7531553,5.61957447 L15.6282649,5.24731915 L15.4841149,4.88587234 L15.3237598,4.53259574 L15.1443996,4.18731915 L14.9514643,3.85557447 L14.7421541,3.52919149 L14.519269,3.21625532 L14.2800937,2.91685106 L14.0274283,2.62553191 L13.7610181,2.34774468 L13.4809481,2.08340426 L13.1901877,1.83259574 L12.8858523,1.59531915 L12.570572,1.37131915 L12.2443468,1.16365957 L11.9072616,0.972170213 L11.5620313,0.796851064 L11.2061107,0.634978723 L10.8391604,0.492085106 L10.4666953,0.365276596 L10.0836246,0.257361702 L9.69495425,0.168340426 L9.29813886,0.098212766 L8.89580861,0.0469787234 L8.48541818,0.0173617021 L8.07222789,0.00655319149 L7.65657714,0.0173617021 L7.24618671,0.0469787234 L6.84385646,0.098212766 L6.44424121,0.168340426 L6.05565569,0.257361702 L5.67241534,0.365276596 L5.29732001,0.492085106 L4.93036971,0.634978723 L4.57173412,0.796851064 L4.22378888,0.972170213 L3.88670366,1.16365957 L3.55793316,1.37131915 L3.24248317,1.59531915 L2.93814774,1.83259574 L2.64467234,2.08340426 L2.36477198,2.34774468 L2.09556197,2.62553191 L1.84272685,2.91685106 L1.6037213,3.21625532 L1.37820594,3.52919149 L1.16881095,3.85557447 L0.973075842,4.18731915 L0.796260945,4.53259574 L0.633360464,4.88587234 L0.489380195,5.24731915 L0.361520286,5.61957447 L0.252835121,5.9972766 L0.163155013,6.38289362 L0.0925648045,6.77404255 L0.0408099642,7.1732766 L0.0110297201,7.57778723 L0,7.98782979 L0.0110297201,8.40051064 L0.0408099642,8.80774468 L0.0925648045,9.20689362 L0.163155013,9.60340426 L0.252835121,9.98919149 L0.361520286,10.3693617 L0.489380195,10.7417872 L0.633360464,11.1057872 L0.796260945,11.4618723 L0.973075842,11.8070638 L1.16881095,12.1417021 L1.37820594,12.468 L1.6037213,12.7808511 L1.84272685,13.0829787 L2.09556197,13.3742979 L2.36477198,13.6521702 L2.64467234,13.9190638 L2.93814774,14.1699574 L3.24248317,14.4074043 L3.55793316,14.6311489 L3.88670366,14.8388936 L4.22378888,15.0331915 L4.57173412,15.2085106 L4.93036971,15.3702979 L5.29732001,15.5131915 L5.67241534,15.64 L6.05565569,15.7479149 L6.44424121,15.8369362 L6.84385646,15.9070638 L7.24618671,15.9582128 L7.65657714,15.9878298 L8.07222789,15.9987234 L8.07222789,15.9987234 Z" id="Shape" fill="#ED1C2E"></path>
                            <path id="Shape" fill="#F7A826" d="M12.5188171,3.0733617 L16.7996212,3.0733617 L16.7996212,2.63906383 L12.8884824,2.63906383 L12.5188171,3.0733617 L12.5188171,3.0733617 Z"></path>
                            <path id="Shape" fill="#F7A826" d="M11.8774813,4.03897872 L16.7996212,4.03897872 L16.7996212,3.60468085 L12.1355768,3.60468085 L11.8774813,4.03897872 L11.8774813,4.03897872 Z"></path>
                            <path id="Shape" fill="#F7A826" d="M11.399046,5.00187234 L16.7996212,5.00187234 L16.7996212,4.56757447 L11.5893511,4.56757447 L11.399046,5.00187234 L11.399046,5.00187234 Z"></path>
                            <path id="Shape" fill="#F7A826" d="M11.0701907,5.96740426 L16.7996212,5.96740426 L16.7996212,5.53319149 L11.2061107,5.53319149 L11.0701907,5.96740426 L11.0701907,5.96740426 Z"></path>
                            <path id="Shape" fill="#F7A826" d="M11.2604957,10.6338723 L16.813281,10.6338723 L16.813281,10.1995745 L11.1245757,10.1995745 L11.2604957,10.6338723 L11.2604957,10.6338723 Z"></path>
                            <path id="Shape" fill="#F7A826" d="M11.6708862,11.5994043 L16.813281,11.5994043 L16.813281,11.1652766 L11.4670909,11.1652766 L11.6708862,11.5994043 L11.6708862,11.5994043 Z"></path>
                            <path id="Shape" fill="#F7A826" d="M12.2470618,12.5624681 L16.813281,12.5624681 L16.813281,12.1281702 L11.9725066,12.1281702 L12.2470618,12.5624681 L12.2470618,12.5624681 Z"></path>
                            <path id="Shape" fill="#F7A826" d="M13.0408623,13.528 L16.813281,13.528 L16.813281,13.0910638 L12.6574522,13.0910638 L13.0408623,13.528 L13.0408623,13.528 Z"></path>
                            <path id="Shape" fill="#F7A826" d="M10.8772554,6.93055319 L16.7996212,6.93055319 L16.7996212,6.49617021 L10.9614206,6.49617021 L10.8772554,6.93055319 L10.8772554,6.93055319 Z"></path>
                            <path id="Shape" fill="#F7A826" d="M14.4866889,9.67097872 L16.745321,9.67097872 L16.745321,9.23668085 L14.5681391,9.23668085 L14.4866889,9.67097872 L14.4866889,9.67097872 Z"></path>
                            <path id="Shape" fill="#F7A826" d="M14.6660491,8.708 L16.745321,8.708 L16.745321,8.27097872 L14.747669,8.27097872 L14.6660491,8.708 L14.6660491,8.708 Z"></path>
                            <path id="Shape" fill="#F7A826" d="M10.7277603,8.27097872 L11.3148807,8.27097872 L11.3148807,8.708 L10.7549952,8.708 L10.7277603,8.27097872 L10.7277603,8.27097872 Z"></path>
                            <path d="M9.63250906,7.74502128 L9.59424442,7.74238298 L9.55631915,7.73693617 L9.5209392,7.73148936 L9.4856441,7.72621277 L9.45297916,7.72085106 L9.4177689,7.71540426 L9.38230411,7.70995745 L9.34437884,7.70459574 L9.30628388,7.69914894 L9.26284375,7.69642553 L9.21397361,7.69387234 L9.16230361,7.69106383 L9.1052036,7.69106383 L9.04267357,7.69387234 L8.97199852,7.69914894 L8.89326329,7.70459574 L8.8387086,7.71268085 L8.78720829,7.72085106 L8.74096831,7.73693617 L8.70015834,7.75319149 L8.66214823,7.772 L8.62685313,7.79361702 L8.59953336,7.82059574 L8.57501344,7.84485106 L8.55880824,7.87446809 L8.54531804,7.90417021 L8.53980318,7.93659574 L8.53980318,7.96902128 L8.54794821,8.004 L8.55880824,8.03897872 L8.58078283,8.07412766 L8.60767838,8.10919149 L8.66214823,8.16034043 L8.72739327,8.20093617 L8.80341349,8.23591489 L8.88494858,8.26561702 L8.97199852,8.29251064 L9.06159378,8.32229787 L9.15127389,8.3546383 L9.23840868,8.38978723 L9.31994377,8.43548936 L9.39596399,8.49217021 L9.46383919,8.55965957 L9.5209392,8.64323404 L9.56454902,8.74570213 L9.5916991,8.86723404 L9.60255913,9.01276596 L9.5916991,9.1826383 L9.5726092,9.30944681 L9.5400291,9.42 L9.49641929,9.52255319 L9.44220397,9.61148936 L9.37967394,9.68978723 L9.30899889,9.75710638 L9.23280898,9.81659574 L9.14864373,9.86782979 L9.06159378,9.90817021 L8.97199852,9.94331915 L8.87951856,9.97021277 L8.78449328,9.99182979 L8.69201332,10.008 L8.60233321,10.0161702 L8.5126531,10.0215319 L8.42831817,10.0242553 L8.31140313,10.0242553 L8.20280281,10.0215319 L8.10769269,10.0215319 L8.01801258,10.0188085 L7.93647749,10.0161702 L7.86317228,10.0107234 L7.79792724,10.0053617 L7.73522752,9.9972766 L7.67821236,9.99182979 L7.62654236,9.98110638 L7.57504205,9.97302128 L7.52863238,9.95948936 L7.48256209,9.94876596 L7.43895228,9.93259574 L7.39559699,9.91642553 L7.34927217,9.90008511 L7.47161722,9.30417021 L7.49622198,9.30944681 L7.52608706,9.31753191 L7.56401233,9.32842553 L7.61025231,9.33914894 L7.6592073,9.34987234 L7.7135923,9.36076596 L7.77349217,9.37412766 L7.83865236,9.38502128 L7.90661241,9.39574468 L7.97728746,9.40646809 L8.05067752,9.4147234 L8.12678259,9.42280851 L8.20551782,9.42553191 L8.2843379,9.42817021 L8.36315797,9.42817021 L8.44197805,9.42553191 L8.52088297,9.4092766 L8.58324331,9.38765957 L8.6321983,9.35795745 L8.67020841,9.32025532 L8.69735849,9.28255319 L8.71924824,9.23923404 L8.73282328,9.19617021 L8.74376816,9.15574468 L8.74902849,9.07753191 L8.72459341,9.01012766 L8.67852312,8.95617021 L8.61056308,8.91029787 L8.52902799,8.86978723 L8.43383303,8.8293617 L8.32777802,8.79157447 L8.22172302,8.74851064 L8.1131227,8.69991489 L8.00986755,8.64323404 L7.91467259,8.57302128 L7.82770749,8.48944681 L7.7596626,8.38697872 L7.71079245,8.26561702 L7.68635738,8.11991489 L7.68915723,7.94731915 L7.70264743,7.84212766 L7.72182217,7.74238298 L7.7490571,7.6506383 L7.78146751,7.56434043 L7.82490763,7.48340426 L7.87394747,7.4132766 L7.93104748,7.34587234 L7.99892268,7.28655319 L8.07791244,7.23531915 L8.1647927,7.19217021 L8.26253299,7.15157447 L8.371303,7.12195745 L8.49364805,7.09770213 L8.62685313,7.07880851 L8.7735484,7.068 L8.93407325,7.0652766 L9.0344437,7.0652766 L9.12683882,7.068 L9.21117376,7.0707234 L9.28736367,7.07344681 L9.35523887,7.07880851 L9.4177689,7.08425532 L9.47198422,7.08961702 L9.5209392,7.09497872 L9.56726403,7.10042553 L9.60527414,7.10842553 L9.64065409,7.11387234 L9.67323418,7.11923404 L9.70038426,7.12468085 L9.72498902,7.12731915 L9.74925441,7.13276596 L9.77105932,7.13548936 L9.63250906,7.74502128 L9.63250906,7.74502128 Z" id="Shape" fill="#FFFFFF"></path>
                            <path d="M9.63250906,7.74502128 L9.63250906,7.74502128 L9.59424442,7.74238298 L9.55631915,7.73693617 L9.5209392,7.73148936 L9.4856441,7.72621277 L9.45297916,7.72085106 L9.4177689,7.71540426 L9.38230411,7.70995745 L9.34437884,7.70459574 L9.30628388,7.69914894 L9.26284375,7.69642553 L9.21397361,7.69387234 L9.16230361,7.69106383 L9.1052036,7.69106383 L9.04267357,7.69387234 L8.97199852,7.69914894 L8.89326329,7.70459574 L8.89326329,7.70459574 L8.8387086,7.71268085 L8.78720829,7.72085106 L8.74096831,7.73693617 L8.70015834,7.75319149 L8.66214823,7.772 L8.62685313,7.79361702 L8.59953336,7.82059574 L8.57501344,7.84485106 L8.55880824,7.87446809 L8.54531804,7.90417021 L8.53980318,7.93659574 L8.53980318,7.96902128 L8.54794821,8.004 L8.55880824,8.03897872 L8.58078283,8.07412766 L8.60767838,8.10919149 L8.60767838,8.10919149 L8.66214823,8.16034043 L8.72739327,8.20093617 L8.80341349,8.23591489 L8.88494858,8.26561702 L8.97199852,8.29251064 L9.06159378,8.32229787 L9.15127389,8.3546383 L9.23840868,8.38978723 L9.31994377,8.43548936 L9.39596399,8.49217021 L9.46383919,8.55965957 L9.5209392,8.64323404 L9.56454902,8.74570213 L9.5916991,8.86723404 L9.60255913,9.01276596 L9.5916991,9.1826383 L9.5916991,9.1826383 L9.5726092,9.30944681 L9.5400291,9.42 L9.49641929,9.52255319 L9.44220397,9.61148936 L9.37967394,9.68978723 L9.30899889,9.75710638 L9.23280898,9.81659574 L9.14864373,9.86782979 L9.06159378,9.90817021 L8.97199852,9.94331915 L8.87951856,9.97021277 L8.78449328,9.99182979 L8.69201332,10.008 L8.60233321,10.0161702 L8.5126531,10.0215319 L8.42831817,10.0242553 L8.42831817,10.0242553 L8.31140313,10.0242553 L8.20280281,10.0215319 L8.10769269,10.0215319 L8.01801258,10.0188085 L7.93647749,10.0161702 L7.86317228,10.0107234 L7.79792724,10.0053617 L7.73522752,9.9972766 L7.67821236,9.99182979 L7.62654236,9.98110638 L7.57504205,9.97302128 L7.52863238,9.95948936 L7.48256209,9.94876596 L7.43895228,9.93259574 L7.39559699,9.91642553 L7.34927217,9.90008511 L7.47161722,9.30417021 L7.47161722,9.30417021 L7.49622198,9.30944681 L7.52608706,9.31753191 L7.56401233,9.32842553 L7.61025231,9.33914894 L7.6592073,9.34987234 L7.7135923,9.36076596 L7.77349217,9.37412766 L7.83865236,9.38502128 L7.90661241,9.39574468 L7.97728746,9.40646809 L8.05067752,9.4147234 L8.12678259,9.42280851 L8.20551782,9.42553191 L8.2843379,9.42817021 L8.36315797,9.42817021 L8.44197805,9.42553191 L8.44197805,9.42553191 L8.52088297,9.4092766 L8.58324331,9.38765957 L8.6321983,9.35795745 L8.67020841,9.32025532 L8.69735849,9.28255319 L8.71924824,9.23923404 L8.73282328,9.19617021 L8.74376816,9.15574468 L8.74376816,9.15574468 L8.74902849,9.07753191 L8.72459341,9.01012766 L8.67852312,8.95617021 L8.61056308,8.91029787 L8.52902799,8.86978723 L8.43383303,8.8293617 L8.32777802,8.79157447 L8.22172302,8.74851064 L8.1131227,8.69991489 L8.00986755,8.64323404 L7.91467259,8.57302128 L7.82770749,8.48944681 L7.7596626,8.38697872 L7.71079245,8.26561702 L7.68635738,8.11991489 L7.68915723,7.94731915 L7.68915723,7.94731915 L7.70264743,7.84212766 L7.72182217,7.74238298 L7.7490571,7.6506383 L7.78146751,7.56434043 L7.82490763,7.48340426 L7.87394747,7.4132766 L7.93104748,7.34587234 L7.99892268,7.28655319 L8.07791244,7.23531915 L8.1647927,7.19217021 L8.26253299,7.15157447 L8.371303,7.12195745 L8.49364805,7.09770213 L8.62685313,7.07880851 L8.7735484,7.068 L8.93407325,7.0652766 L8.93407325,7.0652766 L9.0344437,7.0652766 L9.12683882,7.068 L9.21117376,7.0707234 L9.28736367,7.07344681 L9.35523887,7.07880851 L9.4177689,7.08425532 L9.47198422,7.08961702 L9.5209392,7.09497872 L9.56726403,7.10042553 L9.60527414,7.10842553 L9.64065409,7.11387234 L9.67323418,7.11923404 L9.70038426,7.12468085 L9.72498902,7.12731915 L9.74925441,7.13276596 L9.77105932,7.13548936 L9.63250906,7.74502128" id="Shape" stroke="#FFFFFF" stroke-width="0.216"></path>
                            <path d="M10.2766447,6.4692766 L11.0294655,6.4692766 L10.9179805,7.12195745 L11.3719808,7.12195745 L11.2739859,7.73148936 L10.7957203,7.71812766 L10.534825,9.22314894 L10.53211,9.27702128 L10.545685,9.32289362 L10.57292,9.35795745 L10.6081302,9.38765957 L10.6570004,9.40646809 L10.7116399,9.42280851 L10.7711156,9.43353191 L10.8364454,9.43880851 L10.8962605,9.43617021 L10.9505606,9.43080851 L10.9996853,9.42280851 L11.0429557,9.412 L11.0783357,9.40119149 L11.1028556,9.39310638 L11.1191456,9.38765957 L11.1245757,9.38502128 L11.0294655,9.8867234 L11.0104605,9.90008511 L10.9913706,9.91097872 L10.9723655,9.92170213 L10.9532756,9.93259574 L10.9343554,9.94068085 L10.9125505,9.94876596 L10.8881154,9.95685106 L10.8635955,9.96493617 L10.8364454,9.97302128 L10.8093802,9.97829787 L10.7768001,9.98374468 L10.7441352,9.98919149 L10.7087552,9.99455319 L10.6679452,9.99991489 L10.6244203,10.0053617 L10.5782651,10.0107234 L10.37167,10.0107234 L10.2629,10.0026383 L10.1679596,9.99182979 L10.0808248,9.97565957 L10.0074347,9.95685106 L9.94498952,9.93259574 L9.89331952,9.90553191 L9.84707954,9.87319149 L9.81178444,9.83812766 L9.7847192,9.80042553 L9.76554446,9.75446809 L9.75196942,9.70859574 L9.74382439,9.65744681 L9.74110938,9.60085106 L9.74110938,9.5413617 L9.74925441,9.47948936 L9.75739943,9.412 L10.2766447,6.4692766 L10.2766447,6.4692766 Z" id="Shape" fill="#FFFFFF"></path>
                            <path d="M10.2766447,6.4692766 L11.0294655,6.4692766 L10.9179805,7.12195745 L11.3719808,7.12195745 L11.2739859,7.73148936 L10.7957203,7.71812766 L10.534825,9.22314894 L10.534825,9.22314894 L10.53211,9.27702128 L10.545685,9.32289362 L10.57292,9.35795745 L10.6081302,9.38765957 L10.6570004,9.40646809 L10.7116399,9.42280851 L10.7711156,9.43353191 L10.8364454,9.43880851 L10.8364454,9.43880851 L10.8962605,9.43617021 L10.9505606,9.43080851 L10.9996853,9.42280851 L11.0429557,9.412 L11.0783357,9.40119149 L11.1028556,9.39310638 L11.1191456,9.38765957 L11.1245757,9.38502128 L11.0294655,9.8867234 L11.0294655,9.8867234 L11.0104605,9.90008511 L10.9913706,9.91097872 L10.9723655,9.92170213 L10.9532756,9.93259574 L10.9343554,9.94068085 L10.9125505,9.94876596 L10.8881154,9.95685106 L10.8635955,9.96493617 L10.8364454,9.97302128 L10.8093802,9.97829787 L10.7768001,9.98374468 L10.7441352,9.98919149 L10.7087552,9.99455319 L10.6679452,9.99991489 L10.6244203,10.0053617 L10.5782651,10.0107234 L10.37167,10.0107234 L10.37167,10.0107234 L10.2629,10.0026383 L10.1679596,9.99182979 L10.0808248,9.97565957 L10.0074347,9.95685106 L9.94498952,9.93259574 L9.89331952,9.90553191 L9.84707954,9.87319149 L9.81178444,9.83812766 L9.7847192,9.80042553 L9.76554446,9.75446809 L9.75196942,9.70859574 L9.74382439,9.65744681 L9.74110938,9.60085106 L9.74110938,9.5413617 L9.74925441,9.47948936 L9.75739943,9.412 L10.2766447,6.4692766" id="Shape" stroke="#FFFFFF" stroke-width="0.216"></path>
                            <path d="M11.9725066,8.74851064 L11.9642767,8.79421277 L11.9618163,8.84280851 L11.9671614,8.89412766 L11.9780215,8.9452766 L11.9970265,8.99659574 L12.0188314,9.04519149 L12.0486117,9.09634043 L12.0811918,9.14221277 L12.1192867,9.18808511 L12.1601815,9.22851064 L12.2036217,9.26902128 L12.2525766,9.3013617 L12.3014468,9.33106383 L12.3558318,9.35531915 L12.410132,9.37412766 L12.4646018,9.38502128 L12.535192,9.39574468 L12.6031521,9.40382979 L12.6737423,9.412 L12.7444173,9.4173617 L12.8150924,9.42 L12.8884824,9.42 L12.9591575,9.4173617 L13.0326324,9.412 L13.1061073,9.40119149 L13.1794125,9.38765957 L13.2554327,9.37148936 L13.3289076,9.34723404 L13.404843,9.31753191 L13.4836631,9.28519149 L13.5597682,9.24204255 L13.6386731,9.19617021 L13.5299031,9.85965957 L13.4864629,9.8812766 L13.4430228,9.90280851 L13.3994978,9.91906383 L13.3586879,9.93523404 L13.3179628,9.94876596 L13.2744378,9.96212766 L13.2309128,9.97302128 L13.1846728,9.98110638 L13.1358875,9.98919149 L13.0815874,9.99455319 L13.0244874,9.99991489 L12.9618725,10.0053617 L12.8913671,10.008 L12.8178922,10.008 L12.7335573,10.0107234 L12.643962,10.0107234 L12.5107569,10.008 L12.3748368,9.99455319 L12.2389168,9.97565957 L12.1030815,9.94331915 L11.9699613,9.90280851 L11.8420165,9.85157447 L11.7198412,9.78425532 L11.605726,9.70595745 L11.499671,9.61429787 L11.407191,9.50374468 L11.3285406,9.37957447 L11.2632108,9.23668085 L11.2168859,9.07753191 L11.1871057,8.89676596 L11.1789607,8.69710638 L11.1926205,8.47591489 L11.2033957,8.38978723 L11.2197706,8.28987234 L11.241321,8.18468085 L11.2714406,8.07131915 L11.3122506,7.95548936 L11.3611207,7.83940426 L11.4234811,7.72085106 L11.499671,7.60748936 L11.5865512,7.49957447 L11.6926062,7.39710638 L11.8122363,7.3053617 L11.9481564,7.22451064 L12.1056268,7.15710638 L12.2824417,7.10842553 L12.478092,7.07608511 L12.6981773,7.0652766 L12.8041475,7.068 L12.9158022,7.07880851 L13.0270327,7.09770213 L13.1386874,7.12468085 L13.2472877,7.16510638 L13.3533427,7.21370213 L13.4511678,7.27838298 L13.5408479,7.35395745 L13.622383,7.44570213 L13.6902582,7.55353191 L13.7446432,7.67761702 L13.7827382,7.82059574 L13.8044583,7.98238298 L13.8071733,8.16578723 L13.7881682,8.37080851 L13.7473582,8.59744681 L13.7337832,8.76187234 L11.7523364,8.76187234 L11.8774813,8.23046809 L13.0678426,8.23046809 L13.0734423,8.16314894 L13.0706425,8.09838298 L13.0652125,8.03897872 L13.0543524,7.98519149 L13.0351777,7.93387234 L13.0162575,7.888 L12.9891074,7.84748936 L12.9618725,7.80978723 L12.9292924,7.77744681 L12.8939124,7.75038298 L12.8531873,7.72621277 L12.8124622,7.70459574 L12.7690221,7.68834043 L12.7254123,7.67761702 L12.6792571,7.66953191 L12.6303021,7.66408511 L12.578717,7.66680851 L12.5298468,7.67489362 L12.4834372,7.68570213 L12.4373669,7.70187234 L12.3911269,7.72340426 L12.3503169,7.74774468 L12.3095918,7.77744681 L12.2742967,7.80978723 L12.2389168,7.84748936 L12.2063367,7.888 L12.1763867,7.93106383 L12.1520365,7.97710638 L12.1275166,8.02561702 L12.1085115,8.07957447 L12.0922215,8.13344681 L12.0811918,8.19004255 L11.9725066,8.74851064 L11.9725066,8.74851064 Z" id="Shape" fill="#FFFFFF"></path>
                            <path d="M11.9725066,8.74851064 L11.9725066,8.74851064 L11.9642767,8.79421277 L11.9618163,8.84280851 L11.9671614,8.89412766 L11.9780215,8.9452766 L11.9970265,8.99659574 L12.0188314,9.04519149 L12.0486117,9.09634043 L12.0811918,9.14221277 L12.1192867,9.18808511 L12.1601815,9.22851064 L12.2036217,9.26902128 L12.2525766,9.3013617 L12.3014468,9.33106383 L12.3558318,9.35531915 L12.410132,9.37412766 L12.4646018,9.38502128 L12.4646018,9.38502128 L12.535192,9.39574468 L12.6031521,9.40382979 L12.6737423,9.412 L12.7444173,9.4173617 L12.8150924,9.42 L12.8884824,9.42 L12.9591575,9.4173617 L13.0326324,9.412 L13.1061073,9.40119149 L13.1794125,9.38765957 L13.2554327,9.37148936 L13.3289076,9.34723404 L13.404843,9.31753191 L13.4836631,9.28519149 L13.5597682,9.24204255 L13.6386731,9.19617021 L13.5299031,9.85965957 L13.5299031,9.85965957 L13.4864629,9.8812766 L13.4430228,9.90280851 L13.3994978,9.91906383 L13.3586879,9.93523404 L13.3179628,9.94876596 L13.2744378,9.96212766 L13.2309128,9.97302128 L13.1846728,9.98110638 L13.1358875,9.98919149 L13.0815874,9.99455319 L13.0244874,9.99991489 L12.9618725,10.0053617 L12.8913671,10.008 L12.8178922,10.008 L12.7335573,10.0107234 L12.643962,10.0107234 L12.643962,10.0107234 L12.5107569,10.008 L12.3748368,9.99455319 L12.2389168,9.97565957 L12.1030815,9.94331915 L11.9699613,9.90280851 L11.8420165,9.85157447 L11.7198412,9.78425532 L11.605726,9.70595745 L11.499671,9.61429787 L11.407191,9.50374468 L11.3285406,9.37957447 L11.2632108,9.23668085 L11.2168859,9.07753191 L11.1871057,8.89676596 L11.1789607,8.69710638 L11.1926205,8.47591489 L11.1926205,8.47591489 L11.2033957,8.38978723 L11.2197706,8.28987234 L11.241321,8.18468085 L11.2714406,8.07131915 L11.3122506,7.95548936 L11.3611207,7.83940426 L11.4234811,7.72085106 L11.499671,7.60748936 L11.5865512,7.49957447 L11.6926062,7.39710638 L11.8122363,7.3053617 L11.9481564,7.22451064 L12.1056268,7.15710638 L12.2824417,7.10842553 L12.478092,7.07608511 L12.6981773,7.0652766 L12.6981773,7.0652766 L12.8041475,7.068 L12.9158022,7.07880851 L13.0270327,7.09770213 L13.1386874,7.12468085 L13.2472877,7.16510638 L13.3533427,7.21370213 L13.4511678,7.27838298 L13.5408479,7.35395745 L13.622383,7.44570213 L13.6902582,7.55353191 L13.7446432,7.67761702 L13.7827382,7.82059574 L13.8044583,7.98238298 L13.8071733,8.16578723 L13.7881682,8.37080851 L13.7473582,8.59744681 L13.7337832,8.76187234 L11.7523364,8.76187234 L11.8774813,8.23046809 L13.0678426,8.23046809 L13.0678426,8.23046809 L13.0734423,8.16314894 L13.0706425,8.09838298 L13.0652125,8.03897872 L13.0543524,7.98519149 L13.0351777,7.93387234 L13.0162575,7.888 L12.9891074,7.84748936 L12.9618725,7.80978723 L12.9292924,7.77744681 L12.8939124,7.75038298 L12.8531873,7.72621277 L12.8124622,7.70459574 L12.7690221,7.68834043 L12.7254123,7.67761702 L12.6792571,7.66953191 L12.6303021,7.66408511 L12.6303021,7.66408511 L12.578717,7.66680851 L12.5298468,7.67489362 L12.4834372,7.68570213 L12.4373669,7.70187234 L12.3911269,7.72340426 L12.3503169,7.74774468 L12.3095918,7.77744681 L12.2742967,7.80978723 L12.2389168,7.84748936 L12.2063367,7.888 L12.1763867,7.93106383 L12.1520365,7.97710638 L12.1275166,8.02561702 L12.1085115,8.07957447 L12.0922215,8.13344681 L12.0811918,8.19004255 L11.9725066,8.74851064" id="Shape" stroke="#FFFFFF" stroke-width="0.216"></path>
                            <path d="M18.4547579,7.28382979 L18.4194628,7.26493617 L18.3841677,7.24876596 L18.3461576,7.22987234 L18.3053476,7.21097872 L18.2646225,7.19480851 L18.2182977,7.1786383 L18.1721426,7.16246809 L18.1231876,7.14621277 L18.0716024,7.13276596 L18.0199324,7.12195745 L17.9629173,7.11114894 L17.9058172,7.10314894 L17.8432872,7.09770213 L17.7806723,7.09234043 L17.7155121,7.09234043 L17.6476369,7.09234043 L17.5796769,7.09234043 L17.508917,7.09770213 L17.4355269,7.10578723 L17.3595916,7.11923404 L17.2833168,7.14085106 L17.2073814,7.17055319 L17.1311915,7.20834043 L17.0550016,7.25685106 L16.9817812,7.31617021 L16.9110213,7.38629787 L16.8430613,7.47259574 L16.7778163,7.57242553 L16.7180861,7.69106383 L16.6609012,7.82595745 L16.6094009,7.97710638 L16.5659608,8.14961702 L16.5495859,8.2466383 L16.538641,8.34110638 L16.533211,8.43548936 L16.5360109,8.52731915 L16.5441559,8.61889362 L16.5631609,8.7052766 L16.587596,8.78612766 L16.6174611,8.86723404 L16.6582711,8.94 L16.7071412,9.01012766 L16.7642412,9.07208511 L16.8294014,9.12868085 L16.9029612,9.17719149 L16.9871264,9.21778723 L17.0796064,9.25285106 L17.1829464,9.27702128 L17.2181566,9.28519149 L17.2588817,9.2932766 L17.3077519,9.2987234 L17.3622217,9.30417021 L17.4219519,9.30944681 L17.4844819,9.30944681 L17.5525268,9.30944681 L17.620402,9.30417021 L17.6910771,9.29591489 L17.7617521,9.28255319 L17.8296273,9.26365957 L17.8976722,9.24204255 L17.9655474,9.21234043 L18.0280774,9.17719149 L18.0851775,9.13412766 L18.1394776,9.08561702 L18.0173023,9.80578723 L18.0009274,9.81923404 L17.9846373,9.83531915 L17.9629173,9.85429787 L17.9384822,9.87046809 L17.9084474,9.89208511 L17.8703524,9.91097872 L17.8269972,9.92978723 L17.7780422,9.94595745 L17.7155121,9.96493617 L17.6448371,9.97829787 L17.5633869,9.98919149 L17.4681919,9.99991489 L17.3622217,10.0053617 L17.2399615,10.008 L17.1011567,10.0053617 L16.9490314,9.9972766 L16.8240562,9.98374468 L16.6989962,9.95685106 L16.574021,9.91642553 L16.4489609,9.86246809 L16.3294157,9.79770213 L16.2153005,9.71668085 L16.1065305,9.62238298 L16.0059904,9.51446809 L15.9163103,9.39310638 L15.8402052,9.25821277 L15.7749602,9.10723404 L15.72609,8.9426383 L15.6935099,8.76187234 L15.6825651,8.57038298 L15.6879951,8.36 L15.717945,8.13625532 L15.7394954,8.02561702 L15.7640153,7.91770213 L15.7912502,7.81251064 L15.8184003,7.71268085 L15.8483502,7.61829787 L15.8835605,7.52382979 L15.9190253,7.43489362 L15.9569505,7.35123404 L15.9979302,7.26757447 L16.0386553,7.18944681 L16.0848105,7.11387234 L16.1335958,7.04374468 L16.1825507,6.97634043 L16.2371054,6.91157447 L16.2913208,6.85225532 L16.3483359,6.79565957 L16.410866,6.74170213 L16.4734808,6.69038298 L16.538641,6.64459574 L16.6066859,6.60144681 L16.680076,6.56085106 L16.7533812,6.52587234 L16.8294014,6.49353191 L16.9083063,6.46382979 L16.9926413,6.43685106 L17.0768065,6.41523404 L17.1637716,6.39642553 L17.2562516,6.38017021 L17.3485618,6.3667234 L17.4465567,6.35591489 L17.5443818,6.35055319 L17.6476369,6.34782979 L17.734602,6.35055319 L17.8188521,6.35591489 L17.9003024,6.36391489 L17.9819223,6.37480851 L18.0580274,6.38561702 L18.1314174,6.40178723 L18.2020925,6.41523404 L18.2672527,6.43140426 L18.3297827,6.44765957 L18.3841677,6.46382979 L18.4357529,6.48 L18.4793627,6.49617021 L18.517288,6.50970213 L18.5499529,6.52042553 L18.5744728,6.53123404 L18.590678,6.53668085 L18.4547579,7.28382979 L18.4547579,7.28382979 Z" id="Shape" fill="#FFFFFF"></path>
                            <path d="M18.4547579,7.28382979 L18.4547579,7.28382979 L18.4194628,7.26493617 L18.3841677,7.24876596 L18.3461576,7.22987234 L18.3053476,7.21097872 L18.2646225,7.19480851 L18.2182977,7.1786383 L18.1721426,7.16246809 L18.1231876,7.14621277 L18.0716024,7.13276596 L18.0199324,7.12195745 L17.9629173,7.11114894 L17.9058172,7.10314894 L17.8432872,7.09770213 L17.7806723,7.09234043 L17.7155121,7.09234043 L17.6476369,7.09234043 L17.6476369,7.09234043 L17.5796769,7.09234043 L17.508917,7.09770213 L17.4355269,7.10578723 L17.3595916,7.11923404 L17.2833168,7.14085106 L17.2073814,7.17055319 L17.1311915,7.20834043 L17.0550016,7.25685106 L16.9817812,7.31617021 L16.9110213,7.38629787 L16.8430613,7.47259574 L16.7778163,7.57242553 L16.7180861,7.69106383 L16.6609012,7.82595745 L16.6094009,7.97710638 L16.5659608,8.14961702 L16.5659608,8.14961702 L16.5495859,8.2466383 L16.538641,8.34110638 L16.533211,8.43548936 L16.5360109,8.52731915 L16.5441559,8.61889362 L16.5631609,8.7052766 L16.587596,8.78612766 L16.6174611,8.86723404 L16.6582711,8.94 L16.7071412,9.01012766 L16.7642412,9.07208511 L16.8294014,9.12868085 L16.9029612,9.17719149 L16.9871264,9.21778723 L17.0796064,9.25285106 L17.1829464,9.27702128 L17.1829464,9.27702128 L17.2181566,9.28519149 L17.2588817,9.2932766 L17.3077519,9.2987234 L17.3622217,9.30417021 L17.4219519,9.30944681 L17.4844819,9.30944681 L17.5525268,9.30944681 L17.620402,9.30417021 L17.6910771,9.29591489 L17.7617521,9.28255319 L17.8296273,9.26365957 L17.8976722,9.24204255 L17.9655474,9.21234043 L18.0280774,9.17719149 L18.0851775,9.13412766 L18.1394776,9.08561702 L18.0173023,9.80578723 L18.0173023,9.80578723 L18.0009274,9.81923404 L17.9846373,9.83531915 L17.9629173,9.85429787 L17.9384822,9.87046809 L17.9084474,9.89208511 L17.8703524,9.91097872 L17.8269972,9.92978723 L17.7780422,9.94595745 L17.7155121,9.96493617 L17.6448371,9.97829787 L17.5633869,9.98919149 L17.4681919,9.99991489 L17.3622217,10.0053617 L17.2399615,10.008 L17.1011567,10.0053617 L16.9490314,9.9972766 L16.9490314,9.9972766 L16.8240562,9.98374468 L16.6989962,9.95685106 L16.574021,9.91642553 L16.4489609,9.86246809 L16.3294157,9.79770213 L16.2153005,9.71668085 L16.1065305,9.62238298 L16.0059904,9.51446809 L15.9163103,9.39310638 L15.8402052,9.25821277 L15.7749602,9.10723404 L15.72609,8.9426383 L15.6935099,8.76187234 L15.6825651,8.57038298 L15.6879951,8.36 L15.717945,8.13625532 L15.717945,8.13625532 L15.7394954,8.02561702 L15.7640153,7.91770213 L15.7912502,7.81251064 L15.8184003,7.71268085 L15.8483502,7.61829787 L15.8835605,7.52382979 L15.9190253,7.43489362 L15.9569505,7.35123404 L15.9979302,7.26757447 L16.0386553,7.18944681 L16.0848105,7.11387234 L16.1335958,7.04374468 L16.1825507,6.97634043 L16.2371054,6.91157447 L16.2913208,6.85225532 L16.3483359,6.79565957 L16.410866,6.74170213 L16.4734808,6.69038298 L16.538641,6.64459574 L16.6066859,6.60144681 L16.680076,6.56085106 L16.7533812,6.52587234 L16.8294014,6.49353191 L16.9083063,6.46382979 L16.9926413,6.43685106 L17.0768065,6.41523404 L17.1637716,6.39642553 L17.2562516,6.38017021 L17.3485618,6.3667234 L17.4465567,6.35591489 L17.5443818,6.35055319 L17.6476369,6.34782979 L17.6476369,6.34782979 L17.734602,6.35055319 L17.8188521,6.35591489 L17.9003024,6.36391489 L17.9819223,6.37480851 L18.0580274,6.38561702 L18.1314174,6.40178723 L18.2020925,6.41523404 L18.2672527,6.43140426 L18.3297827,6.44765957 L18.3841677,6.46382979 L18.4357529,6.48 L18.4793627,6.49617021 L18.517288,6.50970213 L18.5499529,6.52042553 L18.5744728,6.53123404 L18.590678,6.53668085 L18.4547579,7.28382979" id="Shape" stroke="#FFFFFF" stroke-width="0.216"></path>
                            <path d="M25.1463194,10.0107234 L24.3934137,10.0107234 L24.4477987,9.71140426 L24.4477987,9.68434043 L24.4042738,9.73829787 L24.3581186,9.78680851 L24.3119635,9.83012766 L24.2630934,9.86782979 L24.2141384,9.90280851 L24.1651834,9.93259574 L24.1163132,9.95685106 L24.0645584,9.98110638 L24.0130581,9.99991489 L23.9613032,10.0134468 L23.9097181,10.0269787 L23.8553331,10.0350638 L23.8009481,10.0431489 L23.7493629,10.0485106 L23.6949779,10.0513191 L23.6405929,10.0513191 L23.4993277,10.0404255 L23.3688376,10.0107234 L23.2492075,9.96493617 L23.1406072,9.90280851 L23.0426124,9.82459574 L22.9555625,9.73302128 L22.8795422,9.63319149 L22.814382,9.51991489 L22.759997,9.39838298 L22.7165569,9.27182979 L22.686607,9.13957447 L22.6648021,9.00204255 L22.656657,8.86442553 L22.6594569,8.72408511 L22.6730319,8.58655319 L22.6976367,8.44902128 L22.738277,8.28987234 L22.7873168,8.13880851 L22.844332,8.0013617 L22.9122072,7.87182979 L22.9828822,7.75038298 L23.0643325,7.64255319 L23.1487523,7.54553191 L23.2383475,7.45642553 L23.3335425,7.37821277 L23.4339978,7.3107234 L23.5374226,7.25148936 L23.6405929,7.20561702 L23.7493629,7.16782979 L23.8579633,7.14365957 L23.9668181,7.12731915 L24.0782183,7.12195745 L24.1570384,7.12468085 L24.2330586,7.13276596 L24.3037336,7.14621277 L24.3689787,7.16510638 L24.4315935,7.1867234 L24.4858937,7.21097872 L24.5403635,7.24068085 L24.5892337,7.27029787 L24.6326738,7.3026383 L24.6733989,7.33770213 L24.708694,7.37276596 L24.7414438,7.40791489 L24.7685091,7.44297872 L24.793029,7.47795745 L24.814749,7.51038298 L24.8310391,7.54280851 L24.8310391,7.54280851 L25.0213442,6.4827234 L25.76059,6.4827234 L25.1463194,10.0107234 L25.1463194,10.0107234 Z" id="Shape" fill="#FFFFFF"></path>
                            <path d="M25.1463194,10.0107234 L24.3934137,10.0107234 L24.4477987,9.71140426 L24.4477987,9.68434043 L24.4477987,9.68434043 L24.4042738,9.73829787 L24.3581186,9.78680851 L24.3119635,9.83012766 L24.2630934,9.86782979 L24.2141384,9.90280851 L24.1651834,9.93259574 L24.1163132,9.95685106 L24.0645584,9.98110638 L24.0130581,9.99991489 L23.9613032,10.0134468 L23.9097181,10.0269787 L23.8553331,10.0350638 L23.8009481,10.0431489 L23.7493629,10.0485106 L23.6949779,10.0513191 L23.6405929,10.0513191 L23.6405929,10.0513191 L23.4993277,10.0404255 L23.3688376,10.0107234 L23.2492075,9.96493617 L23.1406072,9.90280851 L23.0426124,9.82459574 L22.9555625,9.73302128 L22.8795422,9.63319149 L22.814382,9.51991489 L22.759997,9.39838298 L22.7165569,9.27182979 L22.686607,9.13957447 L22.6648021,9.00204255 L22.656657,8.86442553 L22.6594569,8.72408511 L22.6730319,8.58655319 L22.6976367,8.44902128 L22.6976367,8.44902128 L22.738277,8.28987234 L22.7873168,8.13880851 L22.844332,8.0013617 L22.9122072,7.87182979 L22.9828822,7.75038298 L23.0643325,7.64255319 L23.1487523,7.54553191 L23.2383475,7.45642553 L23.3335425,7.37821277 L23.4339978,7.3107234 L23.5374226,7.25148936 L23.6405929,7.20561702 L23.7493629,7.16782979 L23.8579633,7.14365957 L23.9668181,7.12731915 L24.0782183,7.12195745 L24.0782183,7.12195745 L24.1570384,7.12468085 L24.2330586,7.13276596 L24.3037336,7.14621277 L24.3689787,7.16510638 L24.4315935,7.1867234 L24.4858937,7.21097872 L24.5403635,7.24068085 L24.5892337,7.27029787 L24.6326738,7.3026383 L24.6733989,7.33770213 L24.708694,7.37276596 L24.7414438,7.40791489 L24.7685091,7.44297872 L24.793029,7.47795745 L24.814749,7.51038298 L24.8310391,7.54280851 L24.8310391,7.54280851 L25.0213442,6.4827234 L25.76059,6.4827234 L25.1463194,10.0107234" id="Shape" stroke="#FFFFFF" stroke-width="0.216"></path>
                            <path d="M23.915233,9.35795745 L23.9912532,9.35268085 L24.0619282,9.33651064 L24.1271733,9.31753191 L24.1896184,9.28782979 L24.2467185,9.25548936 L24.3011035,9.21506383 L24.3526886,9.1692766 L24.3989286,9.12059574 L24.4396537,9.0667234 L24.4778335,9.00731915 L24.5130438,8.9452766 L24.5429937,8.88059574 L24.5701438,8.81319149 L24.5918639,8.74306383 L24.6108689,8.67021277 L24.6245288,8.59744681 L24.6381038,8.52178723 L24.6462489,8.44357447 L24.6462489,8.37080851 L24.643449,8.29531915 L24.6354737,8.22519149 L24.6245288,8.15770213 L24.6055237,8.09302128 L24.5837188,8.03097872 L24.5565688,7.97710638 L24.5239887,7.92570213 L24.4886087,7.88255319 L24.4477987,7.84485106 L24.4016436,7.81251064 L24.3526886,7.79089362 L24.3011035,7.77744681 L24.2440883,7.772 L24.1706134,7.77744681 L24.1027382,7.78825532 L24.0401233,7.80978723 L23.9775933,7.83676596 L23.9232083,7.87182979 L23.868993,7.91506383 L23.822753,7.96085106 L23.776513,8.01208511 L23.735703,8.07131915 L23.6976929,8.13344681 L23.6623978,8.19812766 L23.6324479,8.26825532 L23.6052978,8.34110638 L23.5835778,8.41387234 L23.5617728,8.49217021 L23.5455676,8.57038298 L23.5319926,8.68910638 L23.5374226,8.81855319 L23.5564277,8.9507234 L23.5917228,9.07753191 L23.6460229,9.18808511 L23.7167828,9.27702128 L23.8064629,9.33651064 L23.915233,9.35795745 L23.915233,9.35795745 Z" id="Shape" fill="#FCB331"></path>
                            <path d="M7.22421211,9.412 L7.11561179,10.0107234 L6.43075102,10.0107234 L6.44975607,9.90008511 L6.46341596,9.80042553 L6.47419115,9.72493617 L6.48496633,9.68434043 L6.44704107,9.72757447 L6.40351609,9.7706383 L6.35193094,9.81114894 L6.29491577,9.84893617 L6.22958589,9.8867234 L6.16162585,9.91906383 L6.0909508,9.95140426 L6.01756073,9.97829787 L5.93874066,10.0026383 L5.85992058,10.0215319 L5.78118535,10.0377872 L5.69965027,10.0485106 L5.62074534,10.0538723 L5.54201011,10.0565957 L5.4658202,10.0485106 L5.39251498,10.0377872 L5.29732001,10.0134468 L5.21035491,9.98655319 L5.13433469,9.95140426 L5.06645949,9.91097872 L5.00655963,9.86782979 L4.95217462,9.81923404 L4.90873449,9.768 L4.87046985,9.71404255 L4.8379746,9.65744681 L4.81090936,9.59795745 L4.78910445,9.5387234 L4.77272956,9.47948936 L4.76186953,9.4173617 L4.7537245,9.35531915 L4.74829449,9.29591489 L4.74829449,9.23668085 L4.75635467,9.13148936 L4.77272956,9.03157447 L4.79996448,8.93719149 L4.83525959,8.84553191 L4.87869972,8.75923404 L4.92773955,8.68102128 L4.98475472,8.60553191 L5.05016944,8.53804255 L5.1179598,8.47591489 L5.19398002,8.41931915 L5.27288494,8.36817021 L5.35442003,8.32493617 L5.44138513,8.28731915 L5.53106524,8.25753191 L5.6235452,8.2332766 L5.71857048,8.21710638 L5.72408534,8.21710638 L5.73766038,8.21429787 L5.75675028,8.21165957 L5.78653052,8.20902128 L5.81911062,8.20357447 L5.85720557,8.20093617 L5.89793069,8.19548936 L5.94425552,8.19004255 L5.9904955,8.18468085 L6.03665064,8.17931915 L6.08560562,8.17668085 L6.12904575,8.17123404 L6.17248588,8.16859574 L6.21312616,8.16578723 L6.25130596,8.16314894 L6.28125589,8.16314894 L6.34378592,8.16314894 L6.40894611,8.16578723 L6.46876113,8.16859574 L6.52857615,8.16859574 L6.57753114,8.17123404 L6.61554125,8.17387234 L6.64269133,8.17668085 L6.65083635,8.17668085 L6.65635121,8.15770213 L6.67264126,8.10919149 L6.6862163,8.05251064 L6.69164632,8.0013617 L6.68078629,7.94187234 L6.65635121,7.888 L6.62377112,7.83940426 L6.58033099,7.79897872 L6.52857615,7.76391489 L6.47147614,7.73965957 L6.40640079,7.72340426 L6.3354712,7.71812766 L6.25962067,7.71540426 L6.17800074,7.71268085 L6.09375065,7.71268085 L6.00661586,7.71540426 L5.91693575,7.72085106 L5.83014034,7.72876596 L5.74309039,7.73693617 L5.65875546,7.74774468 L5.57730522,7.75855319 L5.49848514,7.772 L5.42789493,7.78553191 L5.3626499,7.79897872 L5.30283487,7.81523404 L5.25396473,7.83131915 L5.21586977,7.85021277 L5.18591984,7.86638298 L5.37902479,7.21634043 L5.43858528,7.19217021 L5.49848514,7.17055319 L5.56364533,7.15157447 L5.62889037,7.13812766 L5.69405056,7.12468085 L5.7648953,7.11387234 L5.83548551,7.10314894 L5.90879073,7.09770213 L5.98506548,7.09234043 L6.06363103,7.08961702 L6.1453358,7.08689362 L6.22958589,7.08689362 L6.31672068,7.08689362 L6.40640079,7.08689362 L6.50134123,7.08961702 L6.59653619,7.09234043 L6.67264126,7.09770213 L6.75417635,7.11114894 L6.8383416,7.13004255 L6.92539154,7.15429787 L7.00964163,7.1867234 L7.09117672,7.22451064 L7.17279665,7.27029787 L7.24881687,7.32153191 L7.31669207,7.38093617 L7.37659193,7.44570213 L7.43080725,7.51846809 L7.47161722,7.59940426 L7.49885214,7.68570213 L7.51522703,7.77744681 L7.51522703,7.87991489 L7.49885214,7.98782979 L7.22421211,9.412 L7.22421211,9.412 Z" id="Shape" fill="#FFFFFF"></path>
                            <path d="M7.22421211,9.412 L7.11561179,10.0107234 L6.43075102,10.0107234 L6.43075102,10.0107234 L6.44975607,9.90008511 L6.46341596,9.80042553 L6.47419115,9.72493617 L6.48496633,9.68434043 L6.48496633,9.68434043 L6.44704107,9.72757447 L6.40351609,9.7706383 L6.35193094,9.81114894 L6.29491577,9.84893617 L6.22958589,9.8867234 L6.16162585,9.91906383 L6.0909508,9.95140426 L6.01756073,9.97829787 L5.93874066,10.0026383 L5.85992058,10.0215319 L5.78118535,10.0377872 L5.69965027,10.0485106 L5.62074534,10.0538723 L5.54201011,10.0565957 L5.4658202,10.0485106 L5.39251498,10.0377872 L5.39251498,10.0377872 L5.29732001,10.0134468 L5.21035491,9.98655319 L5.13433469,9.95140426 L5.06645949,9.91097872 L5.00655963,9.86782979 L4.95217462,9.81923404 L4.90873449,9.768 L4.87046985,9.71404255 L4.8379746,9.65744681 L4.81090936,9.59795745 L4.78910445,9.5387234 L4.77272956,9.47948936 L4.76186953,9.4173617 L4.7537245,9.35531915 L4.74829449,9.29591489 L4.74829449,9.23668085 L4.74829449,9.23668085 L4.75635467,9.13148936 L4.77272956,9.03157447 L4.79996448,8.93719149 L4.83525959,8.84553191 L4.87869972,8.75923404 L4.92773955,8.68102128 L4.98475472,8.60553191 L5.05016944,8.53804255 L5.1179598,8.47591489 L5.19398002,8.41931915 L5.27288494,8.36817021 L5.35442003,8.32493617 L5.44138513,8.28731915 L5.53106524,8.25753191 L5.6235452,8.2332766 L5.71857048,8.21710638 L5.71857048,8.21710638 L5.72408534,8.21710638 L5.73766038,8.21429787 L5.75675028,8.21165957 L5.78653052,8.20902128 L5.81911062,8.20357447 L5.85720557,8.20093617 L5.89793069,8.19548936 L5.94425552,8.19004255 L5.9904955,8.18468085 L6.03665064,8.17931915 L6.08560562,8.17668085 L6.12904575,8.17123404 L6.17248588,8.16859574 L6.21312616,8.16578723 L6.25130596,8.16314894 L6.28125589,8.16314894 L6.28125589,8.16314894 L6.34378592,8.16314894 L6.40894611,8.16578723 L6.46876113,8.16859574 L6.52857615,8.16859574 L6.57753114,8.17123404 L6.61554125,8.17387234 L6.64269133,8.17668085 L6.65083635,8.17668085 L6.65083635,8.17668085 L6.65635121,8.15770213 L6.67264126,8.10919149 L6.6862163,8.05251064 L6.69164632,8.0013617 L6.69164632,8.0013617 L6.68078629,7.94187234 L6.65635121,7.888 L6.62377112,7.83940426 L6.58033099,7.79897872 L6.52857615,7.76391489 L6.47147614,7.73965957 L6.40640079,7.72340426 L6.3354712,7.71812766 L6.3354712,7.71812766 L6.25962067,7.71540426 L6.17800074,7.71268085 L6.09375065,7.71268085 L6.00661586,7.71540426 L5.91693575,7.72085106 L5.83014034,7.72876596 L5.74309039,7.73693617 L5.65875546,7.74774468 L5.57730522,7.75855319 L5.49848514,7.772 L5.42789493,7.78553191 L5.3626499,7.79897872 L5.30283487,7.81523404 L5.25396473,7.83131915 L5.21586977,7.85021277 L5.18591984,7.86638298 L5.37902479,7.21634043 L5.37902479,7.21634043 L5.43858528,7.19217021 L5.49848514,7.17055319 L5.56364533,7.15157447 L5.62889037,7.13812766 L5.69405056,7.12468085 L5.7648953,7.11387234 L5.83548551,7.10314894 L5.90879073,7.09770213 L5.98506548,7.09234043 L6.06363103,7.08961702 L6.1453358,7.08689362 L6.22958589,7.08689362 L6.31672068,7.08689362 L6.40640079,7.08689362 L6.50134123,7.08961702 L6.59653619,7.09234043 L6.59653619,7.09234043 L6.67264126,7.09770213 L6.75417635,7.11114894 L6.8383416,7.13004255 L6.92539154,7.15429787 L7.00964163,7.1867234 L7.09117672,7.22451064 L7.17279665,7.27029787 L7.24881687,7.32153191 L7.31669207,7.38093617 L7.37659193,7.44570213 L7.43080725,7.51846809 L7.47161722,7.59940426 L7.49885214,7.68570213 L7.51522703,7.77744681 L7.51522703,7.87991489 L7.49885214,7.98782979 L7.22421211,9.412" id="Shape" stroke="#FFFFFF" stroke-width="0.216"></path>
                            <path d="M6.56930127,8.708 L6.56650142,8.69455319 L6.55572623,8.68102128 L6.53943618,8.67285106 L6.5122861,8.66748936 L6.48242101,8.66212766 L6.44704107,8.65931915 L6.40640079,8.65931915 L6.36559083,8.65931915 L6.32198101,8.66212766 L6.27574103,8.66748936 L6.2323009,8.67285106 L6.18877593,8.67829787 L6.14796596,8.68365957 L6.1100407,8.69191489 L6.0774606,8.69991489 L6.04751067,8.708 L6.02842077,8.7133617 L6.00661586,8.72144681 L5.97683561,8.73225532 L5.94705537,8.74570213 L5.91159058,8.76187234 L5.87621063,8.78085106 L5.83828536,8.79965957 L5.80282057,8.8212766 L5.7648953,8.84817021 L5.72943051,8.87514894 L5.69685041,8.90757447 L5.66698532,8.94 L5.6397504,8.97506383 L5.62074534,9.01276596 L5.60437045,9.05591489 L5.59622543,9.09906383 L5.59359526,9.1907234 L5.60725515,9.26365957 L5.63449007,9.31753191 L5.66961549,9.35795745 L5.71034061,9.38502128 L5.75675028,9.40119149 L5.80019041,9.4092766 L5.84363053,9.412 L5.92516562,9.4092766 L5.99847083,9.40119149 L6.06931558,9.39029787 L6.13167592,9.37412766 L6.18614576,9.35531915 L6.23764607,9.33106383 L6.28388605,9.30680851 L6.32478086,9.27702128 L6.36007596,9.25021277 L6.39274091,9.21778723 L6.4197213,9.18808511 L6.44161105,9.15574468 L6.46053126,9.12340426 L6.47690615,9.09097872 L6.49048119,9.0612766 L6.49862622,9.03157447 L6.52043113,8.95344681 L6.53943618,8.86442553 L6.55572623,8.77804255 L6.56930127,8.708 L6.56930127,8.708 Z" id="Shape" fill="#ED1C2E"></path>
                            <path d="M1.50581132,10.0107234 L0.766565544,10.0107234 L1.38355112,6.4692766 L2.66919226,6.4692766 L2.79136762,8.57038298 L3.68019337,6.4692766 L5.02284967,6.4692766 L4.39228906,10.0107234 L3.65295844,10.0107234 L4.12044888,7.36476596 L4.09049895,7.36476596 L2.98438772,10.0107234 L2.14994697,10.0107234 L2.14451696,9.90008511 L2.1255119,9.60612766 L2.10116167,9.18808511 L2.0738419,8.708 L2.04677667,8.22519149 L2.02225675,7.80170213 L2.00333654,7.49421277 L1.99782168,7.36476596 L1.98950697,7.36476596 L1.97330176,7.36476596 L1.95709656,7.36476596 L1.95709656,7.36476596 L1.50581132,10.0107234 L1.50581132,10.0107234 Z" id="Shape" fill="#FFFFFF"></path>
                            <path d="M1.50581132,10.0107234 L0.766565544,10.0107234 L1.38355112,6.4692766 L2.66919226,6.4692766 L2.79136762,8.57038298 L3.68019337,6.4692766 L5.02284967,6.4692766 L4.39228906,10.0107234 L3.65295844,10.0107234 L4.12044888,7.36476596 L4.09049895,7.36476596 L2.98438772,10.0107234 L2.14994697,10.0107234 L2.14994697,10.0107234 L2.14451696,9.90008511 L2.1255119,9.60612766 L2.10116167,9.18808511 L2.0738419,8.708 L2.04677667,8.22519149 L2.02225675,7.80170213 L2.00333654,7.49421277 L1.99782168,7.36476596 L1.99782168,7.36476596 L1.98950697,7.36476596 L1.97330176,7.36476596 L1.95709656,7.36476596 L1.95709656,7.36476596 L1.50581132,10.0107234" id="Shape" stroke="#FFFFFF" stroke-width="0.216"></path>
                            <path d="M20.7134749,9.412 L20.6020747,10.0107234 L19.9198441,10.0107234 L19.9251893,9.90008511 L19.928074,9.80297872 L19.928074,9.73021277 L19.9333343,9.69787234 L19.8980392,9.73829787 L19.8573141,9.7787234 L19.808444,9.81659574 L19.7539741,9.85429787 L19.6969589,9.8892766 L19.6316291,9.92170213 L19.5637539,9.95404255 L19.4958787,9.98110638 L19.4224037,10.0026383 L19.3463835,10.0242553 L19.2701088,10.0377872 L19.1940885,10.0485106 L19.1152685,10.0538723 L19.0391634,10.0565957 L18.9656885,10.0485106 L18.8923833,10.0377872 L18.7945581,10.0134468 L18.707593,9.98655319 L18.6315728,9.95140426 L18.5608129,9.91097872 L18.5009979,9.86782979 L18.4494128,9.81923404 L18.4058029,9.768 L18.3678777,9.71404255 L18.3352976,9.65744681 L18.3107777,9.59795745 L18.2890576,9.5387234 L18.2753977,9.47948936 L18.2646225,9.4173617 L18.2564775,9.35531915 L18.2509626,9.29591489 L18.2509626,9.23668085 L18.2564775,9.13148936 L18.2727675,9.03157447 L18.2972026,8.93719149 L18.3324977,8.84553191 L18.3732228,8.75923404 L18.4249777,8.68102128 L18.4819928,8.60553191 L18.5445229,8.53804255 L18.6152828,8.47591489 L18.688588,8.41931915 L18.7673232,8.36817021 L18.8515733,8.32493617 L18.9359083,8.28731915 L19.0255884,8.25753191 L19.1152685,8.2332766 L19.2077484,8.21710638 L19.2130936,8.21710638 L19.2267535,8.21429787 L19.2456737,8.21165957 L19.2729935,8.20902128 L19.3082037,8.20357447 L19.3463835,8.20093617 L19.3871086,8.19548936 L19.4304639,8.19004255 L19.4767039,8.18468085 L19.5256589,8.17931915 L19.5718989,8.17668085 L19.6181389,8.17123404 L19.661579,8.16859574 L19.6996739,8.16578723 L19.7376841,8.16314894 L19.767634,8.16314894 L19.832879,8.16314894 L19.8980392,8.16578723 L19.9603996,8.16859574 L20.0202994,8.16859574 L20.0720543,8.17123404 L20.1154944,8.17387234 L20.1399295,8.17668085 L20.1508743,8.17668085 L20.1562195,8.15770213 L20.1643645,8.10919149 L20.1725096,8.05251064 L20.1780244,8.0013617 L20.1670795,7.94187234 L20.1454443,7.888 L20.1099795,7.83940426 L20.0692544,7.79897872 L20.0202994,7.76391489 L19.9632843,7.73965957 L19.9034692,7.72340426 L19.8382242,7.71812766 L19.7621191,7.71540426 L19.6806689,7.71268085 L19.5963339,7.71268085 L19.509284,7.71540426 L19.4196887,7.72085106 L19.3327236,7.72876596 L19.2456737,7.73693617 L19.1615084,7.74774468 L19.0798885,7.75855319 L19.0011533,7.772 L18.9304782,7.78553191 L18.865318,7.79897872 L18.8054182,7.81523404 L18.756548,7.83131915 L18.7184531,7.85021277 L18.688588,7.86638298 L18.8788931,7.21634043 L18.9386233,7.19217021 L19.0011533,7.17055319 L19.0635985,7.15157447 L19.1289284,7.13812766 L19.1968036,7.12468085 L19.2647636,7.11387234 L19.3353538,7.10314894 L19.4088287,7.09770213 L19.4849338,7.09234043 L19.5637539,7.08961702 L19.6425739,7.08689362 L19.7267392,7.08689362 L19.8110741,7.08689362 L19.8980392,7.08689362 L19.9904343,7.08961702 L20.0829143,7.09234043 L20.1589345,7.09770213 L20.2405544,7.11114894 L20.3248045,7.13004255 L20.4117696,7.15429787 L20.4960197,7.1867234 L20.580185,7.22451064 L20.6617201,7.27029787 L20.73791,7.32153191 L20.8057852,7.38093617 L20.8683152,7.44570213 L20.9227002,7.51846809 L20.9634253,7.59940426 L20.9934601,7.68570213 L21.0123803,7.77744681 L21.0123803,7.87991489 L20.9987204,7.98782979 L20.7134749,9.412 L20.7134749,9.412 Z" id="Shape" fill="#FFFFFF"></path>
                            <path id="Shape" fill="#FFFFFF" d="M20.6038859,10.029617 L20.6219778,10.0134468 L20.7456998,9.4147234 L20.7095161,9.4092766 L20.5856998,10.008 L20.6038859,9.99182979 L20.6038859,10.029617 L20.6188683,10.0269787 L20.6219778,10.0134468 L20.6038859,10.029617 L20.6038859,10.029617 Z"></path>
                            <path id="Shape" fill="#FFFFFF" d="M19.9034692,10.0718298 L19.9198441,10.1518298 L20.6020747,10.1518298 L20.6020747,9.99182979 L19.9198441,9.99182979 L19.9359645,10.0718298 L19.9034692,10.0718298 L19.9007542,10.1518298 L19.9198441,10.1518298 L19.9034692,10.0718298 L19.9034692,10.0718298 Z"></path>
                            <path id="Shape" fill="#FFFFFF" d="M20.0634692,9.70859574 L19.9733328,9.68714894 L19.9330989,9.73021277 L19.9234302,9.80297872 L19.9234302,9.90008511 L19.9034692,10.0107234 L20.0229234,10.0107234 L20.0431963,9.90008511 L20.0634692,9.80297872 L20.0531768,9.73021277 L20.0531768,9.70859574 L19.9636642,9.68714894 L20.0634692,9.70859574 L20.0634692,9.70859574 Z"></path>
                            <path id="Shape" fill="#FFFFFF" d="M18.8897531,10.0538723 L18.8897531,10.0538723 L18.9656885,10.0645957 L19.0391634,10.072766 L19.1152685,10.0701277 L19.1940885,10.0645957 L19.2729935,10.0538723 L19.3489288,10.0404255 L19.4252036,10.0188085 L19.5012238,9.9972766 L19.5692687,9.97021277 L19.6397741,9.93787234 L19.7050191,9.90553191 L19.7621191,9.86782979 L19.8192191,9.83012766 L19.8681741,9.79225532 L19.9115294,9.74902128 L19.9469942,9.70859574 L19.9198441,9.68714894 L19.8844642,9.72757447 L19.8463692,9.7653617 L19.7974991,9.80297872 L19.7459139,9.84085106 L19.6888988,9.87319149 L19.6233992,9.90553191 L19.558239,9.93787234 L19.4903638,9.96493617 L19.4196887,9.98655319 L19.3434988,10.008 L19.2675634,10.0215319 L19.1940885,10.0323404 L19.1152685,10.0377872 L19.0391634,10.0404255 L18.9656885,10.0323404 L18.895268,10.0215319 L18.895268,10.0215319 L18.8897531,10.0538723 L18.8897531,10.0538723 Z"></path>
                            <path d="M18.2319576,9.23668085 L18.2319576,9.23668085 L18.2346726,9.29591489 L18.2401026,9.35531915 L18.2481628,9.42 L18.2591077,9.48212766 L18.2727675,9.5413617 L18.2944028,9.60340426 L18.3190075,9.66553191 L18.3542178,9.72212766 L18.3923127,9.7787234 L18.4357529,9.83012766 L18.4901379,9.8812766 L18.5527527,9.92451064 L18.6234278,9.96757447 L18.7020782,10.0026383 L18.791928,10.029617 L18.8897531,10.0538723 L18.895268,10.0215319 L18.7972732,9.9972766 L18.7130231,9.97021277 L18.639633,9.93523404 L18.5689579,9.89744681 L18.5118579,9.85429787 L18.4629029,9.80842553 L18.4194628,9.75710638 L18.3813679,9.70595745 L18.3515876,9.6492766 L18.3271525,9.59268085 L18.3053476,9.53608511 L18.2917726,9.47668085 L18.2809126,9.4147234 L18.2727675,9.35531915 L18.2672527,9.29591489 L18.2699677,9.23668085 L18.2699677,9.23668085 L18.2319576,9.23668085 L18.2319576,9.23668085 Z" id="Shape" fill="#FFFFFF"></path>
                            <path d="M19.2077484,8.20093617 L19.2077484,8.20093617 L19.1126383,8.21710638 L19.0201583,8.2413617 L18.9304782,8.27097872 L18.8435131,8.30876596 L18.7590934,8.352 L18.6776431,8.40578723 L18.6042531,8.4626383 L18.533578,8.52731915 L18.4684178,8.5946383 L18.4113178,8.67021277 L18.3569328,8.75106383 L18.3162077,8.84008511 L18.2809126,8.93191489 L18.2564775,9.02893617 L18.2401026,9.13148936 L18.2319576,9.23668085 L18.2699677,9.23668085 L18.2727675,9.13148936 L18.2890576,9.03421277 L18.3135775,8.9426383 L18.3487878,8.85097872 L18.3895977,8.76731915 L18.4384679,8.69191489 L18.495483,8.61625532 L18.5553829,8.54893617 L18.626058,8.48944681 L18.699448,8.43285106 L18.7754682,8.38434043 L18.8598032,8.34110638 L18.9412534,8.30340426 L19.0309335,8.27370213 L19.1179835,8.24944681 L19.2077484,8.2332766 L19.2077484,8.2332766 L19.2077484,8.20093617 L19.2077484,8.20093617 Z" id="Shape" fill="#FFFFFF"></path>
                            <path id="Shape" fill="#FFFFFF" d="M19.767634,8.14434043 L19.767634,8.14434043 L19.7376841,8.14434043 L19.6996739,8.15383325 L19.661579,8.15873277 L19.6181389,8.16363229 L19.5718989,8.17312511 L19.5256589,8.17817775 L19.4767039,8.18797679 L19.4304639,8.19746961 L19.3871086,8.20726866 L19.3463835,8.21691459 L19.3082037,8.22181411 L19.2729935,8.23161315 L19.2456737,8.23635956 L19.2238688,8.24110598 L19.2130936,8.24615861 L19.2077484,8.24615861 L19.2077484,8.30434043 L19.2130936,8.30434043 L19.2293836,8.29928779 L19.2456737,8.29454138 L19.2729935,8.28979497 L19.3082037,8.27999593 L19.3463835,8.27524952 L19.3871086,8.26545047 L19.4304639,8.25565143 L19.4767039,8.24615861 L19.5256589,8.23635956 L19.5718989,8.23161315 L19.6181389,8.22181411 L19.661579,8.21691459 L19.6996739,8.21201507 L19.7376841,8.21201507 L19.767634,8.21201507 L19.767634,8.21201507 L19.767634,8.14434043 L19.767634,8.14434043 Z"></path>
                            <path id="Shape" fill="#FFFFFF" d="M20.1344146,8.23671979 L20.1508743,8.19439034 L20.1399295,8.19439034 L20.1154944,8.18613743 L20.0720543,8.17788452 L20.0202994,8.16084625 L19.9603996,8.16084625 L19.8980392,8.16084625 L19.832879,8.14434043 L19.767634,8.14434043 L19.767634,8.26201097 L19.832879,8.26201097 L19.8980392,8.26201097 L19.9603996,8.27904924 L20.0202994,8.27904924 L20.0720543,8.27904924 L20.1154944,8.28730216 L20.1399295,8.29608751 L20.1508743,8.29608751 L20.1670795,8.25375806 L20.1508743,8.29608751 L20.1643645,8.30434043 L20.1670795,8.25375806 L20.1344146,8.23671979 L20.1344146,8.23671979 Z"></path>
                            <path id="Shape" fill="#FFFFFF" d="M20.2040081,8.0013617 L20.1970704,8.0013617 L20.1901328,8.05251064 L20.1693198,8.10646809 L20.1485067,8.15506383 L20.1344146,8.17387234 L20.2178834,8.17931915 L20.2317588,8.16034043 L20.2525718,8.11182979 L20.2733848,8.05251064 L20.2944146,8.0013617 L20.2874769,8.0013617 L20.2040081,8.0013617 L20.2040081,8.0013617 Z"></path>
                            <path id="Shape" fill="#FFFFFF" d="M19.8382242,7.73421277 L19.8382242,7.73693617 L19.9007542,7.73965957 L19.9578542,7.75591489 L20.0121544,7.78008511 L20.0583944,7.81251064 L20.0964045,7.85021277 L20.1290694,7.89608511 L20.1508743,7.94468085 L20.1616495,8.0013617 L20.1943145,8.0013617 L20.1833696,7.93923404 L20.1616495,7.87991489 L20.1236394,7.82868085 L20.0801993,7.78553191 L20.0285293,7.74774468 L19.9687143,7.72340426 L19.9061842,7.70723404 L19.8382242,7.69914894 L19.8382242,7.70187234 L19.8382242,7.73421277 L19.8382242,7.73421277 Z"></path>
                            <path id="Shape" fill="#FFFFFF" d="M18.6722979,7.86374468 L18.699448,7.87991489 L18.7265133,7.86638298 L18.761978,7.84748936 L18.8081332,7.83131915 L18.8679482,7.81523404 L18.9331084,7.80170213 L19.0038683,7.78825532 L19.0826884,7.7747234 L19.1615084,7.76391489 L19.2456737,7.75319149 L19.3327236,7.74502128 L19.4196887,7.73693617 L19.509284,7.73148936 L19.5963339,7.73148936 L19.6806689,7.73148936 L19.7621191,7.73148936 L19.8382242,7.73421277 L19.8382242,7.70187234 L19.7621191,7.69914894 L19.6806689,7.69387234 L19.5963339,7.69387234 L19.509284,7.69914894 L19.4196887,7.70459574 L19.3327236,7.71268085 L19.2456737,7.72085106 L19.1615084,7.73148936 L19.0771735,7.74238298 L18.9983534,7.75591489 L18.9278481,7.7693617 L18.8624333,7.78280851 L18.8027032,7.79897872 L18.7510332,7.81523404 L18.7102232,7.83404255 L18.6776431,7.85293617 L18.704878,7.86910638 L18.6722979,7.86374468 L18.6722979,7.86374468 Z"></path>
                            <path id="Shape" fill="#FFFFFF" d="M18.8733782,7.20017021 L18.8624333,7.21370213 L18.6722979,7.86374468 L18.704878,7.86910638 L18.895268,7.21906383 L18.8842383,7.23251064 L18.8733782,7.20017021 L18.865318,7.20289362 L18.8624333,7.21370213 L18.8733782,7.20017021 L18.8733782,7.20017021 Z"></path>
                            <path id="Shape" fill="#FFFFFF" d="M20.0829143,7.07608511 L20.0829143,7.07608511 L19.9904343,7.0707234 L19.8980392,7.068 L19.8110741,7.068 L19.7267392,7.068 L19.6425739,7.068 L19.5637539,7.07344681 L19.4849338,7.07608511 L19.4088287,7.08153191 L19.3353538,7.08689362 L19.2619637,7.09770213 L19.1940885,7.10842553 L19.1261285,7.12195745 L19.0608835,7.13548936 L18.9957233,7.15429787 L18.9331084,7.17591489 L18.8733782,7.20017021 L18.8842383,7.23251064 L18.9441381,7.20834043 L19.0064985,7.1867234 L19.0663135,7.16782979 L19.1315585,7.15429787 L19.1996034,7.14085106 L19.2675634,7.13004255 L19.3353538,7.11923404 L19.4088287,7.11387234 L19.4849338,7.10842553 L19.5637539,7.10578723 L19.6425739,7.10578723 L19.7267392,7.10578723 L19.8110741,7.10578723 L19.8980392,7.10578723 L19.9904343,7.10842553 L20.0829143,7.10842553 L20.0829143,7.10842553 L20.0829143,7.07608511 L20.0829143,7.07608511 Z"></path>
                            <path d="M21.0150953,7.99046809 L21.0150953,7.99046809 L21.0286704,7.87991489 L21.0286704,7.77744681 L21.0097502,7.68297872 L20.9798002,7.59404255 L20.9363601,7.51038298 L20.8818054,7.43489362 L20.8166452,7.36748936 L20.7486852,7.30808511 L20.6698651,7.25685106 L20.5884148,7.20834043 L20.5013649,7.17055319 L20.4171997,7.13812766 L20.3275195,7.11387234 L20.2432695,7.09497872 L20.1589345,7.08153191 L20.0829143,7.07608511 L20.0829143,7.10842553 L20.1589345,7.11387234 L20.2377546,7.12731915 L20.3220895,7.14621277 L20.4062548,7.17055319 L20.4905049,7.20289362 L20.5721248,7.24068085 L20.653575,7.28382979 L20.7269651,7.33506383 L20.7949251,7.39438298 L20.8547402,7.45642553 L20.9090403,7.52655319 L20.9472201,7.60476596 L20.9770004,7.68834043 L20.9960903,7.77744681 L20.9960903,7.87991489 L20.9824304,7.98519149 L20.9824304,7.98519149 L21.0150953,7.99046809 L21.0150953,7.99046809 Z" id="Shape" fill="#FFFFFF"></path>
                            <path id="Shape" fill="#FFFFFF" d="M20.729765,9.4147234 L20.729765,9.4147234 L21.0150953,7.99046809 L20.9824304,7.98519149 L20.6971849,9.4092766 L20.6971849,9.4092766 L20.729765,9.4147234 L20.729765,9.4147234 Z"></path>
                            <path d="M20.0555945,8.708 L20.0503342,8.69191489 L20.0393893,8.67829787 L20.0202994,8.67021277 L19.9932342,8.66212766 L19.9632843,8.65931915 L19.928074,8.65676596 L19.8870943,8.65676596 L19.8463692,8.65931915 L19.8029291,8.66476596 L19.759489,8.67021277 L19.7158791,8.67557447 L19.6752389,8.68102128 L19.6344289,8.68910638 L19.5989641,8.69455319 L19.5637539,8.7026383 L19.5366038,8.708 L19.5175139,8.7107234 L19.4958787,8.7187234 L19.4686437,8.72689362 L19.438609,8.73761702 L19.4033987,8.75378723 L19.3708186,8.76995745 L19.3327236,8.78893617 L19.2974285,8.81319149 L19.2619637,8.83744681 L19.2267535,8.86723404 L19.1968036,8.89676596 L19.1668536,8.93191489 L19.1425034,8.96953191 L19.1234983,9.01012766 L19.1071234,9.0532766 L19.0989784,9.09906383 L19.0963483,9.1907234 L19.1097536,9.26365957 L19.1315585,9.31753191 L19.1642235,9.35795745 L19.2049486,9.38502128 L19.2511886,9.40119149 L19.2974285,9.4092766 L19.3434988,9.412 L19.4252036,9.4092766 L19.5012238,9.40119149 L19.5718989,9.38765957 L19.6344289,9.36885106 L19.6943288,9.34723404 L19.7459139,9.32289362 L19.7947841,9.29591489 L19.8382242,9.26365957 L19.8762343,9.23387234 L19.9088992,9.19880851 L19.9388492,9.16646809 L19.9632843,9.13148936 L19.9822893,9.09906383 L19.9958643,9.0667234 L20.0067244,9.03421277 L20.0148694,9.00468085 L20.0258143,8.92910638 L20.0393893,8.85097872 L20.0503342,8.77540426 L20.0555945,8.708 L20.0555945,8.708 Z" id="Shape" fill="#FCB331"></path>
                            <path d="M20.9172702,10.0107234 L21.6837509,10.0107234 L21.6837509,10.0107234 L21.9583909,8.47591489 L21.9690813,8.41668085 L21.9852865,8.3572766 L22.0017462,8.29795745 L22.0234663,8.2387234 L22.0507012,8.17931915 L22.0832813,8.1227234 L22.1185764,8.06868085 L22.1621862,8.01753191 L22.2110564,7.97157447 L22.2652717,7.92851064 L22.3278017,7.888 L22.3985616,7.85565957 L22.4773817,7.82868085 L22.5643468,7.80714894 L22.6594569,7.79089362 L22.7654271,7.78553191 L22.803522,7.78553191 L22.8251572,7.78553191 L22.8333023,7.78553191 L22.8333023,7.78553191 L22.9555625,7.09234043 L22.8795422,7.09770213 L22.806237,7.10578723 L22.738277,7.11923404 L22.6730319,7.13812766 L22.6132169,7.15974468 L22.5562018,7.1867234 L22.5018167,7.21634043 L22.4503164,7.24876596 L22.4013615,7.28655319 L22.3551215,7.32425532 L22.3115117,7.36748936 L22.2680715,7.4106383 L22.2273464,7.45642553 L22.1866213,7.50774468 L22.1458113,7.55617021 L22.1078012,7.61021277 L22.1892514,7.12195745 L21.4255706,7.12195745 L20.9172702,10.0107234 L20.9172702,10.0107234 L20.9172702,10.0107234 Z" id="Shape" fill="#FFFFFF"></path>
                            <path d="M20.9172702,10.0107234 L21.6837509,10.0107234 L21.6837509,10.0107234 L21.9583909,8.47591489 L21.9583909,8.47591489 L21.9690813,8.41668085 L21.9852865,8.3572766 L22.0017462,8.29795745 L22.0234663,8.2387234 L22.0507012,8.17931915 L22.0832813,8.1227234 L22.1185764,8.06868085 L22.1621862,8.01753191 L22.2110564,7.97157447 L22.2652717,7.92851064 L22.3278017,7.888 L22.3985616,7.85565957 L22.4773817,7.82868085 L22.5643468,7.80714894 L22.6594569,7.79089362 L22.7654271,7.78553191 L22.7654271,7.78553191 L22.803522,7.78553191 L22.8251572,7.78553191 L22.8333023,7.78553191 L22.8333023,7.78553191 L22.9555625,7.09234043 L22.9555625,7.09234043 L22.8795422,7.09770213 L22.806237,7.10578723 L22.738277,7.11923404 L22.6730319,7.13812766 L22.6132169,7.15974468 L22.5562018,7.1867234 L22.5018167,7.21634043 L22.4503164,7.24876596 L22.4013615,7.28655319 L22.3551215,7.32425532 L22.3115117,7.36748936 L22.2680715,7.4106383 L22.2273464,7.45642553 L22.1866213,7.50774468 L22.1458113,7.55617021 L22.1078012,7.61021277 L22.1892514,7.12195745 L21.4255706,7.12195745 L20.9172702,10.0107234 L20.9172702,10.0107234" id="Shape" stroke="#FFFFFF" stroke-width="0.216"></path>
                            <path d="M13.7202082,10.0107234 L14.4866889,10.0107234 L14.5003487,10.0107234 L14.7611592,8.47591489 L14.7719344,8.41668085 L14.7855943,8.36 L14.7992542,8.30340426 L14.8182592,8.24944681 L14.8399793,8.19548936 L14.8670445,8.14434043 L14.8997095,8.09565957 L14.9378044,8.04987234 L14.9814142,8.0092766 L15.0302844,7.96902128 L15.0900146,7.93659574 L15.1552596,7.90689362 L15.2313647,7.88255319 L15.3156147,7.86102128 L15.4080947,7.84748936 L15.51398,7.83940426 L15.522125,7.83940426 L15.5331548,7.84212766 L15.5465601,7.84485106 L15.56022,7.84485106 L15.5738799,7.84748936 L15.5846551,7.85021277 L15.5928849,7.85293617 L15.5955151,7.85293617 L15.598315,7.84212766 L15.60646,7.80978723 L15.61732,7.7612766 L15.6308951,7.70187234 L15.6499001,7.63174468 L15.66899,7.55617021 L15.6935099,7.48068085 L15.717945,7.40519149 L15.7394954,7.35395745 L15.7668151,7.3026383 L15.7939652,7.25148936 L15.8211153,7.20561702 L15.8456352,7.16510638 L15.8646403,7.13276596 L15.8783002,7.11387234 L15.8835605,7.10578723 L15.8809303,7.10578723 L15.8699854,7.10314894 L15.8564953,7.10042553 L15.8374902,7.09770213 L15.8184003,7.09770213 L15.7965954,7.09497872 L15.7776752,7.09234043 L15.7586701,7.09234043 L15.6743352,7.09770213 L15.598315,7.10578723 L15.5276399,7.11923404 L15.4623949,7.13548936 L15.3998648,7.15710638 L15.3428497,7.184 L15.2910948,7.21097872 L15.2421398,7.24331915 L15.1959847,7.27838298 L15.1524597,7.31880851 L15.1118195,7.35931915 L15.0710943,7.40519149 L15.0302844,7.45106383 L14.9921894,7.50229787 L14.9514643,7.55617021 L14.9106543,7.61021277 L15.0084795,7.12195745 L14.2285086,7.12195745 L13.7202082,10.0107234 L13.7202082,10.0107234 L13.7202082,10.0107234 Z" id="Shape" fill="#FFFFFF"></path>
                            <path d="M13.7202082,10.0107234 L14.4866889,10.0107234 L14.5003487,10.0107234 L14.7611592,8.47591489 L14.7611592,8.47591489 L14.7719344,8.41668085 L14.7855943,8.36 L14.7992542,8.30340426 L14.8182592,8.24944681 L14.8399793,8.19548936 L14.8670445,8.14434043 L14.8997095,8.09565957 L14.9378044,8.04987234 L14.9814142,8.0092766 L15.0302844,7.96902128 L15.0900146,7.93659574 L15.1552596,7.90689362 L15.2313647,7.88255319 L15.3156147,7.86102128 L15.4080947,7.84748936 L15.51398,7.83940426 L15.51398,7.83940426 L15.522125,7.83940426 L15.5331548,7.84212766 L15.5465601,7.84485106 L15.56022,7.84485106 L15.5738799,7.84748936 L15.5846551,7.85021277 L15.5928849,7.85293617 L15.5955151,7.85293617 L15.5955151,7.85293617 L15.598315,7.84212766 L15.60646,7.80978723 L15.61732,7.7612766 L15.6308951,7.70187234 L15.6499001,7.63174468 L15.66899,7.55617021 L15.6935099,7.48068085 L15.717945,7.40519149 L15.717945,7.40519149 L15.7394954,7.35395745 L15.7668151,7.3026383 L15.7939652,7.25148936 L15.8211153,7.20561702 L15.8456352,7.16510638 L15.8646403,7.13276596 L15.8783002,7.11387234 L15.8835605,7.10578723 L15.8835605,7.10578723 L15.8809303,7.10578723 L15.8699854,7.10314894 L15.8564953,7.10042553 L15.8374902,7.09770213 L15.8184003,7.09770213 L15.7965954,7.09497872 L15.7776752,7.09234043 L15.7586701,7.09234043 L15.7586701,7.09234043 L15.6743352,7.09770213 L15.598315,7.10578723 L15.5276399,7.11923404 L15.4623949,7.13548936 L15.3998648,7.15710638 L15.3428497,7.184 L15.2910948,7.21097872 L15.2421398,7.24331915 L15.1959847,7.27838298 L15.1524597,7.31880851 L15.1118195,7.35931915 L15.0710943,7.40519149 L15.0302844,7.45106383 L14.9921894,7.50229787 L14.9514643,7.55617021 L14.9106543,7.61021277 L15.0084795,7.12195745 L14.2285086,7.12195745 L13.7202082,10.0107234 L13.7202082,10.0107234" id="Shape" stroke="#FFFFFF" stroke-width="0.216"></path>
                        </g>
                    </g>
                </g>
            </g>
        </g>
    </g>
</svg>