<?xml version="1.0" encoding="UTF-8" standalone="no"?>
<svg width="16px" height="16px" viewBox="0 0 16 16" version="1.1" xmlns="http://www.w3.org/2000/svg" xmlns:xlink="http://www.w3.org/1999/xlink" xmlns:sketch="http://www.bohemiancoding.com/sketch/ns">
    <!-- Generator: Sketch 3.5.2 (25235) - http://www.bohemiancoding.com/sketch -->
    <title>paypal</title>
    <desc>Created with Sketch.</desc>
    <defs></defs>
    <g id="Page-1" stroke="none" stroke-width="1" fill="none" fill-rule="evenodd" sketch:type="MSPage">
        <g id="Desktop-HD" sketch:type="MSArtboardGroup" transform="translate(-918.000000, -560.000000)">
            <g id="widget" sketch:type="MSLayerGroup" transform="translate(399.000000, 331.000000)">
                <g id="content" sketch:type="MSShapeGroup">
                    <g id="badges" transform="translate(402.000000, 229.000000)">
                        <g id="paypal" transform="translate(117.000000, 0.000000)">
                            <g id="PayPal" transform="translate(3.076923, 3.076923)" fill="#2C3E50">
                                <path d="M12.2461538,1.90769231 C12,1.47692308 11.6923077,1.10769231 11.2,0.861538462 C11.0153846,0.738461538 10.8307692,0.676923077 10.5846154,0.553846154 C10.7076923,0.923076923 10.8307692,1.35384615 10.8307692,1.84615385 C10.8307692,3.32307692 10.2153846,4.55384615 8.92307692,5.47692308 C7.69230769,6.4 5.90769231,6.83076923 3.63076923,6.83076923 L3.07692308,6.83076923 C2.70769231,6.83076923 2.27692308,7.13846154 2.21538462,7.50769231 L1.6,10.2153846 C1.53846154,10.5846154 1.10769231,10.8923077 0.738461538,10.8923077 L0.307692308,10.8923077 L0.0615384615,11.9384615 C-1.58206781e-15,12.3076923 0.246153846,12.6153846 0.615384615,12.6153846 L2.46153846,12.6153846 C2.83076923,12.6153846 3.26153846,12.3076923 3.32307692,11.9384615 L3.93846154,9.23076923 C4,8.86153846 4.43076923,8.55384615 4.8,8.55384615 L5.35384615,8.55384615 C7.63076923,8.55384615 9.35384615,8.12307692 10.6461538,7.2 C11.8769231,6.27692308 12.5538462,5.10769231 12.5538462,3.56923077 C12.6153846,2.89230769 12.4923077,2.33846154 12.2461538,1.90769231 L12.2461538,1.90769231 Z" id="Shape"></path>
                            </g>
                            <g id="PayPal_1_" fill="#3498D8">
                                <path d="M12.4307692,2.15384615 C12.1846154,1.72307692 11.8769231,1.35384615 11.3846154,1.10769231 C10.9538462,0.8 10.4615385,0.615384615 9.84615385,0.492307692 C9.23076923,0.369230769 8.49230769,0.307692308 7.69230769,0.307692308 L3.81538462,0.307692308 C3.44615385,0.307692308 3.01538462,0.615384615 2.95384615,0.984615385 L0.307692308,12.1230769 C0.246153846,12.4923077 0.492307692,12.8 0.861538462,12.8 L2.70769231,12.8 C3.07692308,12.8 3.50769231,12.4923077 3.56923077,12.1230769 L4.18461538,9.41538462 C4.24615385,9.04615385 4.67692308,8.73846154 5.04615385,8.73846154 L5.6,8.73846154 C7.87692308,8.73846154 9.6,8.30769231 10.8923077,7.38461538 C12.1230769,6.46153846 12.8,5.29230769 12.8,3.75384615 C12.8,3.13846154 12.6769231,2.58461538 12.4307692,2.15384615 L12.4307692,2.15384615 Z M8.49230769,5.78461538 C7.93846154,6.21538462 7.13846154,6.4 6.15384615,6.4 L5.72307692,6.4 C5.35384615,6.4 5.04615385,6.09230769 5.16923077,5.72307692 L5.72307692,3.38461538 C5.78461538,3.01538462 6.21538462,2.70769231 6.58461538,2.70769231 L7.2,2.70769231 C7.87692308,2.70769231 8.43076923,2.83076923 8.8,3.07692308 C9.16923077,3.32307692 9.35384615,3.69230769 9.35384615,4.18461538 C9.29230769,4.8 9.04615385,5.35384615 8.49230769,5.78461538 L8.49230769,5.78461538 Z" id="Shape"></path>
                            </g>
                        </g>
                    </g>
                </g>
            </g>
        </g>
    </g>
</svg>