<?xml version="1.0" encoding="UTF-8" standalone="no"?>
<svg width="27px" height="16px" viewBox="0 0 27 16" version="1.1" xmlns="http://www.w3.org/2000/svg" xmlns:xlink="http://www.w3.org/1999/xlink" xmlns:sketch="http://www.bohemiancoding.com/sketch/ns">
    <!-- Generator: Sketch 3.5.2 (25235) - http://www.bohemiancoding.com/sketch -->
    <title>selz</title>
    <desc>Created with Sketch.</desc>
    <defs></defs>
    <g id="Page-1" stroke="none" stroke-width="1" fill="none" fill-rule="evenodd" sketch:type="MSPage">
        <g id="Desktop-HD" sketch:type="MSArtboardGroup" transform="translate(-995.000000, -585.000000)" fill="#9B9B9B">
            <g id="widget" sketch:type="MSLayerGroup" transform="translate(399.000000, 331.000000)">
                <g id="content" sketch:type="MSShapeGroup">
                    <g id="powered" transform="translate(522.000000, 254.000000)">
                        <g id="selz" transform="translate(74.000000, 0.000000)">
                            <path d="M9.9944186,13.9467907 C10.1060465,14.1990698 10.2463256,14.4286512 10.4156279,14.6362791 C10.6626977,14.9391628 10.9715349,15.1802791 11.3421395,15.3592558 C11.7127442,15.5378605 12.1451163,15.627907 12.6392558,15.627907 C12.9544186,15.627907 13.2658605,15.592186 13.5732093,15.5211163 C13.8809302,15.4504186 14.1778605,15.3551628 14.4643721,15.2368372 C14.7508837,15.1177674 15.0243721,14.9823256 15.2844651,14.8293953 C15.5449302,14.6768372 15.787907,14.5213023 16.0137674,14.3635349 C16.1830698,14.2437209 16.3486512,14.1179535 16.5123721,13.9866047 C16.5402791,14.0610233 16.5693023,14.1328372 16.599814,14.2031628 C16.7877209,14.6373953 17.008,14.9830698 17.2610233,15.2413023 C17.5140465,15.4987907 17.7871628,15.6275349 18.0811163,15.6275349 C18.2660465,15.6275349 18.4643721,15.6014884 18.6764651,15.5501395 C18.8885581,15.4987907 19.1066047,15.4295814 19.3298605,15.3425116 C19.5531163,15.255814 19.7745116,15.1564651 19.9947907,15.0455814 C20.1250233,14.9797209 20.2537674,14.9131163 20.3795349,14.8465116 C20.439814,14.9067907 20.5097674,14.9566512 20.5890233,14.9968372 C20.7006512,15.0526512 20.8331163,15.0809302 20.9856744,15.0809302 C21.1270698,15.0809302 21.2952558,15.0489302 21.4887442,14.984186 C21.712,15.1077209 21.9185116,15.2096744 22.1064186,15.2900465 C22.2946977,15.3704186 22.459907,15.4362791 22.6024186,15.4872558 C22.7449302,15.5382326 22.8591628,15.5743256 22.9454884,15.595907 C23.032186,15.6171163 23.0853953,15.627907 23.1054884,15.627907 C23.3547907,15.627907 23.6208372,15.595907 23.9028837,15.5311628 C24.1856744,15.4671628 24.4625116,15.380093 24.7345116,15.2699535 C25.0061395,15.160186 25.2673488,15.0329302 25.515907,14.888186 C25.7652093,14.7430698 25.9847442,14.5905116 26.1722791,14.4297674 C26.360186,14.2690233 26.5101395,14.104186 26.6225116,13.9348837 C26.7341395,13.7663256 26.7899535,13.6037209 26.7899535,13.4485581 C26.7899535,13.3573953 26.775814,13.2651163 26.747907,13.1713488 C26.72,13.0775814 26.6794419,12.9927442 26.6258605,12.9183256 C26.5722791,12.8427907 26.5060465,12.7813953 26.4271628,12.7330233 C26.3482791,12.6846512 26.2608372,12.6608372 26.164093,12.6608372 C26.0364651,12.6608372 25.9147907,12.6943256 25.7975814,12.7613023 C25.6803721,12.8282791 25.5624186,12.9127442 25.4429767,13.0143256 C25.3231628,13.1162791 25.1988837,13.2249302 25.0690233,13.3402791 C24.9387907,13.4556279 24.7996279,13.5635349 24.6493023,13.6658605 C24.4989767,13.767814 24.3367442,13.851907 24.1607442,13.9188837 C23.9858605,13.9858605 23.7908837,14.0193488 23.5773023,14.0193488 C23.4805581,14.0193488 23.3670698,14.0007442 23.2375814,13.9635349 C23.1073488,13.9263256 22.9845581,13.8842791 22.8673488,13.8388837 C22.7505116,13.7931163 22.6489302,13.7514419 22.5622326,13.7142326 C22.475907,13.6770233 22.4301395,13.6576744 22.4245581,13.6576744 L22.4632558,13.4969302 C22.5090233,13.4325581 22.5990698,13.3108837 22.7341395,13.1311628 C22.8688372,12.9514419 23.0266047,12.7397209 23.2066977,12.496 C23.3875349,12.251907 23.5910698,11.963907 23.8169302,11.6312558 C24.043907,11.2986047 24.2496744,11.0009302 24.4346047,10.7382326 C24.6206512,10.475907 24.7843721,10.2370233 24.9272558,10.0226977 C25.0693953,9.80837209 25.1713488,9.64204651 25.2323721,9.52409302 C25.4459535,9.46530233 25.5985116,9.40204651 25.6900465,9.33506977 C25.7815814,9.26809302 25.8325581,9.21302326 25.8426047,9.16986047 C25.8731163,9.04148837 25.8883721,8.88595349 25.8883721,8.70362791 C25.8883721,8.47851163 25.8493023,8.30027907 25.7704186,8.16893023 C25.6915349,8.0375814 25.5631628,7.97172093 25.3853023,7.97172093 C25.3704186,7.97172093 25.3495814,7.97544186 25.3242791,7.984 C25.2982326,7.99144186 25.2543256,8.00111628 25.1903256,8.01153488 C25.1270698,8.02269767 25.0340465,8.03162791 24.9123721,8.03981395 C24.7903256,8.048 24.6273488,8.05172093 24.424186,8.05172093 L24.1912558,8.05172093 C24.1071628,8.05172093 24.0141395,8.04911628 23.912186,8.04427907 C23.7804651,8.03832558 23.6517209,8.00483721 23.5274419,7.94381395 C23.4027907,7.88167442 23.2807442,7.8135814 23.1613023,7.7384186 C23.0422326,7.66325581 22.9209302,7.5947907 22.7988837,7.53376744 C22.6768372,7.47162791 22.5547907,7.44074419 22.4327442,7.44074419 C22.2697674,7.44074419 22.0933953,7.46902326 21.9025116,7.5252093 C21.7112558,7.58102326 21.528186,7.68893023 21.3529302,7.84669767 C21.1773023,8.0052093 21.0180465,8.2292093 20.8766512,8.51869767 C20.7337674,8.80818605 20.6243721,9.18623256 20.548093,9.65246512 C20.5380465,9.71683721 20.5302326,9.77972093 20.5257674,9.84148837 C20.520186,9.90362791 20.5175814,9.96055814 20.5175814,10.0148837 C20.5175814,10.1432558 20.5339535,10.2466977 20.5670698,10.3244651 C20.6005581,10.4018605 20.6578605,10.4409302 20.7393488,10.4409302 C20.8256744,10.4409302 20.9224186,10.3813953 21.0295814,10.2604651 C21.136,10.1395349 21.2677209,9.95088372 21.4258605,9.69339535 C21.4965581,9.57581395 21.5616744,9.48502326 21.620093,9.42027907 C21.6788837,9.35590698 21.7447442,9.30790698 21.8187907,9.27516279 C21.8924651,9.24353488 21.9825116,9.22455814 22.0893023,9.21934884 C22.1964651,9.21413953 22.3311628,9.21116279 22.4941395,9.21116279 C22.5603721,9.21116279 22.6213953,9.21934884 22.6772093,9.23534884 C22.7330233,9.25097674 22.7877209,9.27404651 22.8409302,9.30344186 L23.0202791,9.40390698 C23.0865116,9.44111628 23.1653953,9.48204651 23.2569302,9.52446512 L21.432186,12.1492093 L21.4013023,12.0710698 C21.0262326,12.3698605 20.6671628,12.6329302 20.3244651,12.8610233 C20.1774884,12.9585116 20.0253023,13.0545116 19.8667907,13.1497674 C19.7093953,13.2442791 19.5557209,13.3283721 19.4061395,13.4016744 C19.2565581,13.4749767 19.1151628,13.5333953 18.9819535,13.5765581 C18.848,13.620093 18.7300465,13.6416744 18.6266047,13.6416744 C18.5830698,13.6416744 18.5373023,13.6107907 18.487814,13.5486512 C18.4394419,13.4853953 18.3925581,13.4016744 18.3490233,13.2956279 C18.3054884,13.1899535 18.2690233,13.0708837 18.2388837,12.9376744 C18.2091163,12.8048372 18.1942326,12.667907 18.1942326,12.5268837 L18.1942326,12.4126512 C18.2109767,12.304 18.2325581,12.1931163 18.2597209,12.0785116 C18.2868837,11.9646512 18.3140465,11.8574884 18.3415814,11.7570233 C18.3687442,11.6565581 18.3973953,11.5635349 18.4271628,11.4764651 C18.4569302,11.3893953 18.4855814,11.3190698 18.5127442,11.2643721 C18.7631628,10.776186 19.0310698,10.2757209 19.3164651,9.76297674 C19.6029767,9.24948837 19.8868837,8.72855814 20.1696744,8.20018605 C20.4524651,7.67069767 20.724093,7.13748837 20.9856744,6.60018605 C21.2468837,6.06325581 21.4768372,5.52744186 21.6751628,4.99274419 C21.8738605,4.4584186 22.0316279,3.92669767 22.1484651,3.3975814 C22.2656744,2.86846512 22.324093,2.34902326 22.324093,1.83851163 C22.324093,1.6107907 22.3062326,1.38716279 22.2708837,1.16725581 C22.2355349,0.946976744 22.1741395,0.750511628 22.0874419,0.576744186 C22.0003721,0.402976744 21.8805581,0.26344186 21.7283721,0.157767442 C21.5776744,0.0528372093 21.384186,0 21.1497674,0 C20.8074419,0 20.4699535,0.103069767 20.1376744,0.308837209 C19.8065116,0.515348837 19.488,0.798883721 19.1832558,1.15981395 C18.8781395,1.52074419 18.587907,1.94381395 18.3099535,2.42976744 C18.0323721,2.91534884 17.7752558,3.43813953 17.5386047,3.99627907 C17.3019535,4.55553488 17.0894884,5.13860465 16.9023256,5.74660465 C16.7140465,6.35423256 16.5525581,6.95962791 16.4163721,7.56167442 C16.279814,8.16446512 16.1763721,8.74865116 16.1056744,9.31572093 C16.0353488,9.8827907 16,10.4074419 16,10.8911628 C16,11.4009302 16.0349767,11.892093 16.104186,12.363907 C15.9866047,12.4632558 15.8593488,12.5648372 15.7220465,12.6690233 C15.428093,12.8930233 15.1155349,13.0995349 14.7843721,13.2893023 C14.4532093,13.4790698 14.1123721,13.6368372 13.7626047,13.7633488 C13.4128372,13.8898605 13.0805581,13.9523721 12.7653953,13.9523721 C12.6649302,13.9523721 12.571907,13.9419535 12.4852093,13.9211163 C12.3985116,13.899907 12.315907,13.8630698 12.2370233,13.8102326 C12.1581395,13.7581395 12.0807442,13.6837209 12.0044651,13.5892093 C11.928186,13.4943256 11.8507907,13.3756279 11.771907,13.2334884 C12.2295814,13.1069767 12.6537674,12.9306047 13.0452093,12.7043721 C13.4366512,12.4773953 13.7745116,12.2195349 14.0580465,11.9304186 C14.3419535,11.640186 14.5901395,11.2926512 14.8033488,10.8870698 C15.016186,10.4814884 15.1226047,10.1153488 15.1226047,9.78865116 C15.1226047,9.48874419 15.0705116,9.21748837 14.9648372,8.97488372 C14.8591628,8.73302326 14.7133023,8.52651163 14.5268837,8.35497674 C14.340093,8.18381395 14.1213023,8.05097674 13.8682791,7.95609302 C13.616,7.8612093 13.3428837,7.81395349 13.0485581,7.81395349 C12.6857674,7.81395349 12.3557209,7.87832558 12.0587907,8.00744186 C11.7618605,8.13655814 11.4939535,8.31032558 11.2550698,8.52911628 C11.0154419,8.74753488 10.8063256,9.00055814 10.6277209,9.28744186 L10.5707907,9.3812093 C10.4070698,9.13451163 10.2154419,8.90604651 9.99553488,8.69506977 C9.6532093,8.36613953 9.26623256,8.07144186 8.83237209,7.81023256 C8.39888372,7.54902326 7.95423256,7.30418605 7.50027907,7.07497674 C7.04483721,6.84576744 6.60055814,6.62362791 6.16706977,6.40818605 C5.7335814,6.19237209 5.34586047,5.96539535 5.00390698,5.72539535 C4.6615814,5.48576744 4.38623256,5.22567442 4.17934884,4.94548837 C3.97209302,4.66567442 3.86827907,4.34790698 3.86827907,3.99293023 C3.86827907,3.78232558 3.92632558,3.56948837 4.04204651,3.35404651 C4.15739535,3.13823256 4.336,2.94325581 4.57525581,2.76837209 C4.81488372,2.59274419 5.11367442,2.45023256 5.472,2.33972093 C5.82995349,2.2292093 6.25153488,2.17413953 6.736,2.17413953 C7.17209302,2.17413953 7.5732093,2.20911628 7.93972093,2.27906977 C8.30586047,2.34902326 8.61953488,2.45395349 8.88111628,2.59423256 C9.1415814,2.73413953 9.34623256,2.90790698 9.49506977,3.11516279 C9.6427907,3.3227907 9.71683721,3.56390698 9.71683721,3.83851163 C9.71683721,4.01637209 9.68148837,4.20911628 9.61153488,4.41637209 C9.5415814,4.62325581 9.43404651,4.84539535 9.28855814,5.0824186 C9.13227907,5.33023256 9.02213953,5.54976744 8.95739535,5.74102326 C8.89265116,5.93227907 8.86065116,6.09823256 8.86065116,6.23813953 C8.86065116,6.4267907 8.91162791,6.56818605 9.01395349,6.66232558 C9.11627907,6.75646512 9.24837209,6.80372093 9.40986047,6.80372093 C9.62567442,6.80372093 9.8664186,6.72186047 10.1332093,6.55739535 C10.3996279,6.39293023 10.6459535,6.14065116 10.872186,5.80204651 C11.1036279,5.45153488 11.271814,5.1147907 11.3771163,4.79181395 C11.4820465,4.46809302 11.5345116,4.15293023 11.5345116,3.84595349 C11.5345116,3.32874419 11.4065116,2.85730233 11.1512558,2.432 C10.8945116,2.00632558 10.5570233,1.63944186 10.1369302,1.33283721 C9.7172093,1.02586047 9.23906977,0.788837209 8.70325581,0.622139535 C8.16744186,0.455069767 7.62046512,0.372093023 7.06009302,0.372093023 C6.17711628,0.372093023 5.40688372,0.48 4.75013953,0.695813953 C4.09302326,0.910883721 3.54455814,1.19218605 3.10623256,1.53972093 C2.66716279,1.88725581 2.33897674,2.28018605 2.12093023,2.71925581 C1.90213953,3.15832558 1.79348837,3.60409302 1.79348837,4.05693023 C1.79348837,4.54176744 1.89693023,4.97376744 2.10418605,5.35367442 C2.31144186,5.7332093 2.58604651,6.07702326 2.928,6.38437209 C3.2695814,6.69097674 3.6587907,6.97227907 4.09488372,7.22827907 C4.53134884,7.48427907 4.97562791,7.728 5.42772093,7.95944186 C5.88018605,8.19162791 6.32446512,8.42083721 6.76055814,8.64669767 C7.19665116,8.87293023 7.58586047,9.11404651 7.92781395,9.37004651 C8.27013953,9.6267907 8.54437209,9.90511628 8.75162791,10.2065116 C8.96,10.507907 9.06306977,10.8502326 9.06306977,11.2327442 C9.06306977,11.6476279 8.94772093,12.0152558 8.71590698,12.336 C8.48409302,12.6567442 8.18269767,12.9276279 7.81097674,13.1482791 C7.43962791,13.3693023 7.01953488,13.5363721 6.55106977,13.6494884 C6.08223256,13.7626047 5.61413953,13.8191628 5.14530233,13.8191628 C4.74716279,13.8191628 4.36204651,13.776 3.99032558,13.6896744 C3.61823256,13.6033488 3.2907907,13.4716279 3.00502326,13.2937674 C2.71962791,13.115907 2.4907907,12.8896744 2.31813953,12.6150698 C2.14586047,12.3404651 2.05990698,12.0145116 2.05990698,11.6372093 C2.05990698,11.4649302 2.07106977,11.3060465 2.09227907,11.1609302 C2.11348837,11.0150698 2.13693023,10.8818605 2.16074419,10.7605581 C2.18493023,10.6392558 2.208,10.5276279 2.2295814,10.4256744 C2.2507907,10.3229767 2.2615814,10.2258605 2.2615814,10.1343256 C2.2615814,9.93488372 2.20390698,9.78827907 2.08818605,9.69413953 C1.97283721,9.59962791 1.82772093,9.55274419 1.65581395,9.55274419 C1.48911628,9.55274419 1.30865116,9.59739535 1.1147907,9.68595349 C0.921302326,9.77525581 0.741953488,9.90660465 0.577488372,10.0818605 C0.413767442,10.2567442 0.276093023,10.4751628 0.165581395,10.7367442 C0.0550697674,10.9972093 1.85897809e-16,11.3004651 1.85897809e-16,11.6453953 C1.85897809e-16,12.3133023 0.149581395,12.8963721 0.448372093,13.3942326 C0.747162791,13.8928372 1.14418605,14.3077209 1.63981395,14.6392558 C2.13469767,14.9704186 2.70027907,15.2182326 3.33655814,15.3826977 C3.97134884,15.5464186 4.62586047,15.6290233 5.29897674,15.6290233 C5.77897674,15.6290233 6.25525581,15.5873488 6.72893023,15.5036279 C7.20297674,15.4202791 7.65544186,15.2978605 8.08595349,15.136 C8.51683721,14.9745116 8.91795349,14.7698605 9.28967442,14.5220465 C9.54902326,14.3490233 9.78455814,14.1573953 9.99516279,13.947907 L9.9944186,13.9467907 Z M11.5348837,11.9069767 C11.7376744,11.9069767 11.9590698,11.8578605 12.1986977,11.76 C12.4383256,11.6621395 12.6612093,11.5367442 12.8669767,11.3826977 C13.0727442,11.2301395 13.2740465,11.0232558 13.4716279,10.763907 C13.6688372,10.5045581 13.7674419,10.2898605 13.7674419,10.120186 C13.7674419,9.88204651 13.7209302,9.68669767 13.627907,9.53302326 C13.5348837,9.37897674 13.4206512,9.30232558 13.2855814,9.30232558 C13.0429767,9.30232558 12.8353488,9.34474419 12.664186,9.42883721 C12.491907,9.5144186 12.347907,9.62381395 12.2325581,9.75888372 C12.1172093,9.89395349 12.024186,10.0476279 11.9534884,10.2195349 C11.8827907,10.3914419 11.8009302,10.6046512 11.707907,10.8587907 C11.6148837,11.1129302 11.5627907,11.3220465 11.5516279,11.4861395 C11.5404651,11.6498605 11.5348837,11.7901395 11.5348837,11.9066047 L11.5348837,11.9069767 Z M17.8604651,9.6744186 C18.1116279,9.23795349 18.3784186,8.74716279 18.6604651,8.20167442 C18.9421395,7.65618605 19.2089302,7.09432558 19.4604651,6.51609302 C19.7112558,5.93786047 19.9293023,5.36074419 20.1134884,4.78586047 C20.2976744,4.20986047 20.4148837,3.67330233 20.4651163,3.17730233 C20.4651163,3.0187907 20.4613953,2.88334884 20.4524651,2.77172093 C20.4442791,2.66009302 20.4174884,2.60427907 20.3728372,2.60427907 C20.2109767,2.60427907 20.0364651,2.70660465 19.8496744,2.91125581 C19.6625116,3.11590698 19.4753488,3.39237209 19.2885581,3.74176744 C19.1013953,4.0907907 18.9227907,4.49711628 18.7527442,4.96074419 C18.5815814,5.42437209 18.4301395,5.91813953 18.295814,6.44167442 C18.1618605,6.9655814 18.055814,7.50437209 17.9776744,8.05804651 C17.8995349,8.61209302 17.8604651,9.15088372 17.8604651,9.6744186 L17.8604651,9.6744186 Z" id="Shape"></path>
                        </g>
                    </g>
                </g>
            </g>
        </g>
    </g>
</svg>