<?xml version="1.0" encoding="UTF-8" standalone="no"?>
<svg width="15px" height="22px" viewBox="0 0 15 22" version="1.1" xmlns="http://www.w3.org/2000/svg" xmlns:xlink="http://www.w3.org/1999/xlink" xmlns:sketch="http://www.bohemiancoding.com/sketch/ns">
    <!-- Generator: Sketch 3.5.2 (25235) - http://www.bohemiancoding.com/sketch -->
    <title>share</title>
    <desc>Created with Sketch.</desc>
    <defs></defs>
    <g id="Page-1" stroke="none" stroke-width="1" fill="none" fill-rule="evenodd" sketch:type="MSPage">
        <g id="Desktop-HD" sketch:type="MSArtboardGroup" transform="translate(-1008.000000, -349.000000)" fill="#95A5A6">
            <g id="widget" sketch:type="MSLayerGroup" transform="translate(399.000000, 331.000000)">
                <g id="content" sketch:type="MSShapeGroup">
                    <g id="share" transform="translate(609.000000, 18.000000)">
                        <path d="M11.9565217,22 L2.39130435,22 C1.07034783,22 0,20.9296522 0,19.6086957 L0,11 C0,9.67952174 1.07034783,8.60869565 2.39130435,8.60869565 L4.30434783,8.60869565 C4.56882609,8.60869565 4.7826087,8.82295652 4.7826087,9.08695652 C4.7826087,9.35095652 4.56882609,9.56521739 4.30434783,9.56521739 L2.39130435,9.56521739 C1.59930435,9.56521739 0.956521739,10.208 0.956521739,11 L0.956521739,19.6086957 C0.956521739,20.4011739 1.59930435,21.0434783 2.39130435,21.0434783 L11.9565217,21.0434783 C12.749,21.0434783 13.3913043,20.4011739 13.3913043,19.6086957 L13.3913043,11 C13.3913043,10.208 12.749,9.56521739 11.9565217,9.56521739 L10.0434783,9.56521739 C9.779,9.56521739 9.56521739,9.35095652 9.56521739,9.08695652 C9.56521739,8.82295652 9.779,8.60869565 10.0434783,8.60869565 L11.9565217,8.60869565 C13.2774783,8.60869565 14.3478261,9.67952174 14.3478261,11 L14.3478261,19.6086957 C14.3478261,20.9296522 13.2774783,22 11.9565217,22 L11.9565217,22 Z M10.6814783,4.64630435 L7.65217391,1.617 L7.65217391,13.8695652 C7.65217391,14.1340435 7.4383913,14.3478261 7.17391304,14.3478261 C6.90943478,14.3478261 6.69565217,14.1340435 6.69565217,13.8695652 L6.69565217,1.617 L3.66634783,4.64630435 C3.48413043,4.82852174 3.18856522,4.82852174 3.00586957,4.64630435 C2.82365217,4.46408696 2.82365217,4.16804348 3.00586957,3.98582609 L6.78652174,0.205173913 C6.80182609,0.182695652 6.81186957,0.156869565 6.83195652,0.136304348 C6.92521739,0.0435217391 7.04765217,-0.000956521739 7.16913043,0.000956521739 C7.17104348,0.000956521739 7.172,0 7.17391304,0 C7.17582609,0 7.17726087,0.000956521739 7.17869565,0.000956521739 C7.30113043,-0.00047826087 7.42308696,0.0435217391 7.51586957,0.136304348 C7.53547826,0.156391304 7.54456522,0.18126087 7.5593913,0.20326087 L11.3419565,3.98582609 C11.5241739,4.16804348 11.5241739,4.46408696 11.3419565,4.64630435 C11.1592609,4.82852174 10.8636957,4.82852174 10.6814783,4.64630435 L10.6814783,4.64630435 Z" id="Shape"></path>
                    </g>
                </g>
            </g>
        </g>
    </g>
</svg>