<?xml version="1.0" encoding="UTF-8" standalone="no"?>
<svg width="49px" height="16px" viewBox="0 0 49 16" version="1.1" xmlns="http://www.w3.org/2000/svg" xmlns:xlink="http://www.w3.org/1999/xlink" xmlns:sketch="http://www.bohemiancoding.com/sketch/ns">
    <!-- Generator: Sketch 3.5.2 (25235) - http://www.bohemiancoding.com/sketch -->
    <title>visa</title>
    <desc>Created with Sketch.</desc>
    <defs></defs>
    <g id="Page-1" stroke="none" stroke-width="1" fill="none" fill-rule="evenodd" sketch:type="MSPage">
        <g id="Desktop-HD" sketch:type="MSArtboardGroup" transform="translate(-801.000000, -560.000000)">
            <g id="widget" sketch:type="MSLayerGroup" transform="translate(399.000000, 331.000000)">
                <g id="content" sketch:type="MSShapeGroup">
                    <g id="badges" transform="translate(402.000000, 229.000000)">
                        <g id="visa">
                            <g id="Group">
                                <g id="形状_1_3_" transform="translate(4.238411, 0.000000)" fill="#005BAC">
                                    <g id="形状_1">
                                        <path d="M15.5049536,0.365033113 L13.018596,15.645351 L16.9965563,15.645351 L19.4832318,0.365033113 L15.5049536,0.365033113 L15.5049536,0.365033113 Z M9.67162914,0.365033113 L5.87888742,10.874702 L5.43025166,8.61160265 L5.43056954,8.61234437 L5.33170861,8.10511258 C4.87268874,7.11586755 3.8095894,5.23570861 1.80217219,3.63115232 C1.20868874,3.15687417 0.610437086,2.75210596 0.0321059603,2.40635762 L3.47909934,15.645351 L7.62384106,15.645351 L13.9531656,0.365033113 L9.67162914,0.365033113 L9.67162914,0.365033113 Z M25.1970331,4.60715232 C25.1970331,2.87957616 29.0712583,3.10156291 30.7736159,4.03962914 L31.341245,0.757827815 C31.341245,0.757827815 29.589298,0.0915496689 27.7631788,0.0915496689 C25.7889272,0.0915496689 21.1009272,0.954913907 21.1009272,5.14998675 C21.1009272,9.09806623 26.6032318,9.14712583 26.6032318,11.2199205 C26.6032318,13.2927152 21.6682384,12.9222781 20.0396291,11.6147285 L19.4477351,15.0449801 C19.4477351,15.0449801 21.223947,15.9083444 23.938543,15.9083444 C26.6528212,15.9083444 30.7488212,14.5021457 30.7488212,10.6770861 C30.7488212,6.70431788 25.1970331,6.33430464 25.1970331,4.60715232 L25.1970331,4.60715232 Z M41.4301457,0.365033113 L38.2317351,0.365033113 C36.7548609,0.365033113 36.3952318,1.50378808 36.3952318,1.50378808 L30.4627285,15.645351 L34.6090596,15.645351 L35.4385166,13.3757881 L40.4957881,13.3757881 L40.9623311,15.645351 L44.6149934,15.645351 L41.4301457,0.365033113 L41.4301457,0.365033113 Z M36.5849007,10.240106 L38.6752848,4.5218543 L39.8512318,10.240106 L36.5849007,10.240106 L36.5849007,10.240106 Z" id="Shape"></path>
                                    </g>
                                </g>
                                <g id="形状_1_2_" transform="translate(0.000000, 0.423841)" fill="#F6AC1D">
                                    <g id="形状_1_1_">
                                        <path d="M8.38484768,1.37981457 C8.38484768,1.37981457 8.22018543,0.000741721854 6.46230464,0.000741721854 L0.0757615894,0.000741721854 L0.000953642384,0.25992053 C0.000953642384,0.25992053 3.07083444,0.885721854 6.016,3.23030464 C8.83051656,5.47115232 9.74866225,8.26447682 9.74866225,8.26447682 L8.38484768,1.37981457 L8.38484768,1.37981457 Z" id="Shape"></path>
                                    </g>
                                </g>
                            </g>
                        </g>
                    </g>
                </g>
            </g>
        </g>
    </g>
</svg>